<svg xmlns="http://www.w3.org/2000/svg" xmlns:xlink="http://www.w3.org/1999/xlink" width="500" zoomAndPan="magnify" viewBox="0 0 375 374.999991" height="500" preserveAspectRatio="xMidYMid meet" version="1.0"><defs><g/></defs><g fill="#232b21" fill-opacity="1"><g transform="translate(57.199219, 163.548505)"><g><path d="M 14.257812 -52.75 L 12.832031 -39.492188 C 12.261719 -37.921875 11.832031 -36.496094 11.546875 -34.929688 L 9.835938 -30.367188 C 7.839844 -23.667969 7.128906 -19.105469 7.128906 -14.96875 C 7.128906 -13.542969 7.269531 -12.261719 7.414062 -10.835938 C 7.984375 -3.5625 12.6875 3.847656 14.398438 3.847656 C 15.113281 3.847656 24.09375 2.992188 25.664062 -9.835938 C 26.375 -14.683594 25.09375 -18.390625 27.515625 -24.238281 L 29.367188 -30.367188 C 29.082031 -33.21875 31.933594 -37.066406 31.648438 -39.917969 C 31.507812 -41.34375 31.648438 -42.34375 31.507812 -44.339844 L 32.933594 -49.328125 C 32.933594 -49.757812 33.929688 -49.898438 34.214844 -49.898438 C 35.070312 -49.898438 35.925781 -49.757812 36.78125 -49.757812 C 43.625 -48.757812 50.613281 -48.617188 57.453125 -48.617188 C 59.59375 -48.617188 60.589844 -48.902344 61.304688 -50.328125 L 61.730469 -51.753906 C 61.589844 -53.320312 60.019531 -54.460938 58.738281 -54.460938 C 55.457031 -54.460938 55.886719 -53.605469 52.75 -53.605469 C 46.476562 -53.605469 40.773438 -54.886719 38.777344 -54.886719 L 36.925781 -55.316406 C 36.355469 -55.601562 36.210938 -55.457031 36.070312 -56.457031 C 37.496094 -62.015625 42.199219 -80.40625 43.910156 -86.253906 L 43.769531 -86.253906 C 43.910156 -87.535156 43.910156 -88.820312 43.769531 -90.101562 C 43.769531 -90.671875 44.480469 -90.816406 45.050781 -91.101562 C 47.761719 -90.957031 50.328125 -90.816406 53.035156 -90.816406 C 53.460938 -90.816406 54.03125 -90.671875 54.460938 -90.671875 C 55.03125 -90.53125 55.601562 -90.53125 56.171875 -90.53125 L 59.164062 -90.53125 C 61.160156 -90.246094 63.300781 -89.960938 65.296875 -89.53125 L 66.292969 -89.246094 C 68.148438 -88.675781 69.429688 -88.675781 71.285156 -88.675781 C 78.269531 -87.535156 85.398438 -86.394531 92.382812 -86.109375 C 93.523438 -85.96875 94.664062 -85.96875 95.664062 -85.96875 L 96.945312 -85.96875 C 97.230469 -85.96875 97.515625 -85.96875 97.945312 -86.109375 C 99.085938 -86.109375 100.226562 -86.109375 101.507812 -86.253906 L 101.9375 -86.253906 C 102.222656 -86.253906 102.507812 -86.253906 102.933594 -86.394531 C 116.761719 -87.535156 129.59375 -92.382812 133.726562 -100.796875 L 133.726562 -101.507812 C 133.726562 -102.507812 132.730469 -102.792969 131.445312 -102.792969 C 129.023438 -102.792969 126.316406 -101.082031 123.179688 -99.65625 C 118.332031 -97.375 109.347656 -95.949219 101.507812 -95.949219 C 98.941406 -95.949219 96.089844 -96.089844 92.953125 -96.375 L 90.957031 -96.519531 C 90.386719 -96.804688 89.675781 -96.945312 88.960938 -96.945312 C 88.535156 -96.945312 88.105469 -96.804688 87.679688 -96.804688 C 85.113281 -97.089844 82.402344 -97.375 79.835938 -97.800781 C 75.847656 -99.226562 75.5625 -98.515625 73.707031 -99.085938 C 72.710938 -98.941406 71.140625 -100.082031 69.859375 -99.941406 L 67.007812 -99.796875 L 62.015625 -100.652344 C 57.3125 -101.652344 53.460938 -102.792969 51.324219 -103.789062 L 49.328125 -105.214844 L 48.332031 -106.78125 C 47.617188 -109.207031 46.191406 -109.632812 44.054688 -109.632812 C 42.34375 -109.632812 37.496094 -110.0625 33.503906 -110.0625 C 30.652344 -110.0625 28.371094 -109.777344 28.085938 -109.0625 L 20.957031 -110.0625 C 18.675781 -110.347656 18.390625 -110.347656 18.105469 -110.347656 C 5.273438 -110.347656 -3.992188 -104.929688 -3.5625 -94.808594 C -3.277344 -92.953125 -2.851562 -91.242188 -2.136719 -89.390625 L 0.425781 -89.960938 C 0.285156 -92.097656 6.984375 -96.089844 13.257812 -96.089844 C 17.394531 -95.234375 20.671875 -96.234375 24.664062 -94.378906 L 24.808594 -94.378906 C 22.242188 -83.402344 17.394531 -64.441406 16.679688 -62.730469 C 16.824219 -60.589844 14.96875 -60.589844 14.257812 -60.589844 C 13.6875 -60.589844 13.257812 -60.875 12.972656 -60.875 C 12.546875 -60.875 8.839844 -60.449219 8.980469 -58.878906 C 9.265625 -56.742188 9.835938 -55.601562 9.980469 -54.886719 Z M 14.257812 -52.75 "/></g></g></g><g fill="#232b21" fill-opacity="1"><g transform="translate(116.075887, 163.548505)"><g><path d="M 2.421875 -28.511719 C 2.707031 -25.804688 3.136719 -24.949219 3.847656 -24.949219 C 4.703125 -24.949219 10.691406 -33.929688 11.546875 -36.070312 L 13.6875 -40.488281 L 13.6875 -40.347656 C 14.683594 -41.488281 14.257812 -41.488281 14.683594 -42.914062 C 15.398438 -44.765625 16.253906 -46.050781 16.964844 -47.046875 C 17.109375 -47.191406 17.25 -47.332031 17.535156 -47.332031 C 18.390625 -47.332031 19.675781 -46.621094 20.53125 -46.335938 C 21.527344 -45.90625 22.527344 -45.621094 23.382812 -45.621094 C 23.523438 -45.621094 23.808594 -45.765625 24.09375 -45.90625 C 24.238281 -45.765625 24.238281 -45.765625 24.523438 -45.765625 C 24.808594 -45.765625 25.519531 -46.191406 26.089844 -46.476562 C 26.230469 -46.621094 26.375 -46.621094 26.515625 -46.621094 L 26.515625 -46.476562 C 26.515625 -46.191406 26.515625 -45.90625 26.375 -45.621094 L 26.230469 -44.480469 C 26.230469 -44.480469 26.375 -44.339844 26.375 -44.480469 C 26.660156 -41.914062 25.09375 -39.0625 23.667969 -36.070312 C 21.8125 -32.363281 19.53125 -27.371094 19.53125 -22.667969 C 19.390625 -20.386719 18.820312 -17.820312 18.25 -15.539062 C 17.679688 -12.972656 17.25 -10.691406 17.394531 -8.980469 C 18.535156 3.707031 25.09375 13.117188 36.925781 14.113281 C 42.199219 14.113281 47.902344 12.546875 54.460938 3.847656 C 55.886719 0.855469 57.3125 -2.136719 59.164062 -4.988281 L 60.589844 -7.128906 C 61.589844 -8.410156 64.011719 -13.402344 65.582031 -16.539062 L 66.722656 -18.820312 L 67.578125 -21.242188 C 71.140625 -29.9375 70.714844 -31.507812 69.859375 -32.078125 L 70 -32.078125 L 69.714844 -32.363281 C 69.574219 -32.789062 69.574219 -33.074219 69.574219 -33.359375 C 69.574219 -34.074219 69.574219 -34.5 69.429688 -34.5 C 68.148438 -34.5 66.007812 -27.371094 65.722656 -26.375 C 65.152344 -24.523438 64.441406 -22.527344 63.441406 -20.101562 C 58.59375 -7.269531 47.046875 7.839844 41.628906 7.839844 C 41.34375 7.839844 40.917969 7.839844 40.632812 7.554688 C 39.917969 7.984375 39.347656 8.269531 38.921875 8.269531 C 36.355469 8.269531 35.640625 2.566406 35.070312 -1.710938 L 34.929688 -2.992188 C 35.214844 -3.277344 35.070312 -3.421875 35.070312 -3.847656 L 34.785156 -6.699219 L 34.785156 -8.839844 C 34.785156 -11.832031 35.214844 -14.96875 36.070312 -18.105469 L 39.0625 -24.949219 C 41.058594 -30.9375 43.484375 -35.640625 45.480469 -39.207031 C 47.476562 -42.914062 48.902344 -45.621094 48.757812 -47.332031 C 48.332031 -52.324219 39.917969 -58.308594 37.921875 -58.308594 C 37.066406 -58.167969 33.929688 -56.882812 29.652344 -54.316406 L 23.953125 -50.898438 L 24.09375 -50.898438 C 23.382812 -50.613281 22.8125 -50.46875 22.242188 -50.46875 C 22.242188 -50.46875 22.242188 -50.613281 22.097656 -50.753906 L 22.097656 -50.613281 L 21.527344 -51.753906 L 21.242188 -51.753906 C 20.246094 -51.753906 19.816406 -52.75 19.53125 -52.75 C 19.390625 -52.75 19.246094 -52.605469 19.246094 -52.605469 C 19.53125 -53.605469 19.960938 -54.03125 20.957031 -56.171875 C 23.953125 -62.445312 28.65625 -72.566406 28.226562 -79.550781 C 27.800781 -83.828125 24.378906 -86.394531 20.386719 -86.394531 C 10.835938 -86.394531 5.132812 -71.710938 5.558594 -61.875 C 5.558594 -61.160156 5.84375 -60.589844 6.128906 -60.164062 L 6.273438 -59.449219 C 6.273438 -58.59375 7.839844 -56.457031 9.410156 -54.316406 C 10.976562 -52.324219 12.546875 -50.183594 12.546875 -49.613281 C 12.6875 -47.617188 9.980469 -42.199219 7.984375 -38.492188 C 6.84375 -36.355469 2.421875 -28.796875 2.421875 -28.511719 Z M -55.601562 13.972656 C -65.867188 13.972656 -75.847656 14.683594 -83.6875 15.539062 C -85.683594 15.96875 -87.679688 16.253906 -89.675781 16.253906 C -90.957031 16.394531 -94.238281 16.964844 -104.359375 20.246094 L -109.917969 22.667969 L -102.648438 22.8125 C -102.507812 22.8125 -102.363281 22.953125 -102.222656 22.953125 C -101.9375 22.953125 -101.507812 22.8125 -101.222656 22.667969 C -99.65625 22.382812 -96.804688 22.382812 -93.523438 22.242188 C -89.53125 22.242188 -84.96875 22.097656 -82.6875 21.527344 C -79.695312 20.816406 -75.417969 20.53125 -71.140625 20.246094 C -68.148438 20.101562 -65.152344 19.816406 -62.730469 19.390625 C -62.585938 19.246094 -62.585938 19.246094 -62.445312 19.246094 C -62.160156 19.246094 -62.015625 19.53125 -61.730469 19.53125 C -61.589844 19.675781 -61.589844 19.53125 -61.445312 19.53125 L -59.878906 19.53125 C -44.910156 20.246094 -33.359375 21.101562 -20.101562 24.808594 C -16.394531 26.089844 -12.402344 27.085938 -8.269531 28.226562 C 3.5625 31.507812 15.683594 35.070312 18.535156 39.777344 C 20.671875 43.484375 21.8125 45.90625 23.238281 45.90625 C 24.949219 45.90625 27.800781 42.914062 33.929688 35.925781 L 35.925781 33.644531 C 33.074219 28.796875 27.371094 21.671875 13.257812 20.386719 C 2.421875 16.109375 -7.984375 12.402344 -24.378906 12.402344 C -30.652344 12.402344 -37.636719 12.972656 -46.050781 14.113281 C -49.1875 13.972656 -52.464844 13.972656 -55.601562 13.972656 Z M 21.386719 -74.847656 C 21.8125 -74.707031 22.097656 -74.136719 22.097656 -73.566406 C 22.382812 -70.285156 19.53125 -62.730469 16.394531 -55.886719 L 16.253906 -56.457031 C 15.683594 -57.738281 14.828125 -59.878906 14.542969 -62.015625 C 14.542969 -66.152344 18.820312 -73.707031 21.386719 -74.847656 Z M 21.386719 -74.847656 "/></g></g></g><g fill="#232b21" fill-opacity="1"><g transform="translate(178.516507, 163.548505)"><g><path d="M 36.355469 -19.675781 L 36.355469 -19.816406 L 36.78125 -20.957031 L 36.78125 -20.816406 C 39.347656 -24.808594 41.488281 -28.65625 43.339844 -31.792969 L 44.480469 -33.789062 C 44.910156 -34.644531 45.480469 -35.5 45.90625 -36.070312 L 45.90625 -36.210938 C 46.191406 -36.496094 46.191406 -36.78125 46.050781 -37.066406 C 46.761719 -38.921875 46.050781 -39.777344 45.050781 -39.777344 C 44.339844 -39.777344 43.625 -39.492188 42.914062 -38.777344 C 39.207031 -31.363281 32.789062 -21.101562 27.65625 -14.96875 L 26.660156 -13.828125 C 25.234375 -12.261719 23.667969 -10.550781 21.957031 -9.550781 C 19.675781 -7.554688 17.820312 -6.128906 16.824219 -5.703125 C 15.683594 -5.988281 14.96875 -6.84375 14.96875 -7.839844 C 14.96875 -9.125 15.683594 -10.691406 16.679688 -12.546875 L 17.25 -13.117188 C 17.820312 -13.6875 17.820312 -13.828125 17.679688 -14.257812 L 17.535156 -14.398438 C 18.25 -17.964844 19.390625 -21.957031 20.816406 -25.804688 L 20.816406 -26.660156 C 21.101562 -27.230469 21.527344 -28.226562 21.671875 -28.796875 C 22.382812 -30.507812 23.238281 -32.648438 23.953125 -34.929688 C 23.808594 -35.5 23.808594 -36.070312 23.808594 -36.640625 C 23.808594 -37.066406 23.808594 -37.921875 23.667969 -38.351562 C 23.667969 -38.777344 23.667969 -39.492188 23.523438 -39.917969 L 23.382812 -40.347656 C 23.238281 -40.347656 23.238281 -40.488281 23.238281 -40.632812 L 23.523438 -41.773438 C 24.09375 -43.625 24.378906 -45.621094 24.238281 -47.046875 C 23.523438 -52.039062 20.246094 -58.167969 14.542969 -58.167969 C 13.6875 -58.167969 12.972656 -58.023438 12.402344 -57.597656 C 10.976562 -57.027344 10.121094 -55.457031 9.695312 -53.320312 L 9.695312 -52.464844 C 8.554688 -48.617188 6.84375 -44.480469 5.132812 -40.347656 L 2.851562 -33.074219 C 2.136719 -29.652344 1.566406 -26.660156 1.140625 -23.808594 L 1.140625 -21.242188 C 1.140625 -20.386719 0.996094 -19.53125 0.996094 -18.675781 C 0.996094 -10.835938 3.847656 -1.851562 12.546875 -0.140625 C 14.683594 -0.140625 16.539062 -0.285156 18.535156 -1.28125 L 18.535156 -1.140625 C 20.246094 -1.851562 21.957031 -3.136719 23.953125 -4.417969 L 23.808594 -4.417969 L 24.523438 -4.847656 C 25.804688 -5.988281 27.085938 -7.554688 28.371094 -8.980469 L 29.652344 -10.40625 C 31.933594 -12.832031 33.789062 -15.539062 35.5 -18.105469 Z M 35.070312 -82.261719 C 35.785156 -83.257812 36.210938 -84.257812 36.640625 -84.96875 L 36.496094 -84.96875 C 37.351562 -86.109375 37.921875 -87.25 37.78125 -88.820312 C 37.496094 -89.675781 36.78125 -90.671875 35.925781 -91.386719 C 33.503906 -93.382812 29.226562 -94.949219 27.230469 -94.808594 C 25.09375 -94.808594 22.667969 -93.667969 20.671875 -91.8125 C 19.246094 -90.53125 18.25 -88.535156 18.390625 -85.539062 C 18.390625 -81.691406 20.246094 -78.269531 22.242188 -76.558594 C 24.09375 -75.417969 26.089844 -74.707031 27.941406 -74.5625 C 30.222656 -74.5625 30.792969 -75.277344 33.359375 -79.410156 Z M 35.070312 -82.261719 "/></g></g></g><g fill="#232b21" fill-opacity="1"><g transform="translate(212.87311, 163.548505)"><g><path d="M 39.0625 -91.101562 C 38.351562 -91.671875 37.921875 -93.523438 37.496094 -95.09375 L 36.640625 -97.800781 L 36.640625 -100.226562 C 35.785156 -107.496094 28.65625 -111.628906 26.089844 -111.628906 C 23.808594 -111.628906 23.238281 -106.640625 22.667969 -100.796875 C 22.382812 -97.800781 22.097656 -94.238281 21.527344 -90.957031 C 21.386719 -90.101562 20.957031 -88.960938 20.53125 -87.964844 C 20.101562 -87.109375 19.816406 -86.253906 19.53125 -84.96875 L 19.53125 -85.113281 L 16.109375 -75.847656 C 14.542969 -75.988281 12.6875 -76.132812 11.121094 -76.132812 L 6.128906 -76.417969 C -2.136719 -77.128906 -8.410156 -78.839844 -12.6875 -80.550781 L -14.683594 -80.265625 C -15.113281 -80.691406 -15.398438 -80.835938 -15.683594 -80.835938 C -15.824219 -80.835938 -16.109375 -80.691406 -16.253906 -80.550781 C -16.964844 -80.550781 -17.25 -79.980469 -17.25 -79.410156 C -16.253906 -74.847656 -5.988281 -71.140625 6.273438 -69.859375 L 14.113281 -69.003906 C 13.6875 -66.863281 13.402344 -64.867188 13.117188 -62.871094 C 12.402344 -59.023438 11.832031 -54.886719 10.691406 -51.183594 L 10.691406 -51.324219 C 10.121094 -49.898438 9.695312 -47.902344 9.265625 -46.050781 L 8.695312 -43.625 C 8.695312 -43.199219 8.839844 -42.769531 8.839844 -42.34375 C 5.273438 -32.648438 3.136719 -22.8125 3.421875 -17.679688 C 3.847656 -14.542969 8.269531 -10.40625 11.121094 -7.839844 C 12.402344 -4.988281 14.542969 -2.851562 18.675781 -2.851562 C 22.382812 -2.851562 27.941406 -7.984375 32.789062 -13.402344 L 37.921875 -19.816406 C 46.476562 -30.507812 51.753906 -40.203125 52.324219 -44.054688 C 52.324219 -44.339844 52.324219 -44.765625 52.039062 -45.195312 L 52.179688 -45.335938 L 52.179688 -45.195312 C 52.324219 -45.621094 52.464844 -46.050781 52.324219 -46.476562 C 52.324219 -47.191406 51.609375 -47.761719 51.039062 -47.761719 C 49.613281 -47.761719 44.765625 -38.492188 43.054688 -35.070312 L 43.054688 -35.214844 L 42.34375 -33.789062 C 41.058594 -30.9375 38.492188 -27.800781 36.210938 -24.949219 C 35.355469 -23.953125 34.359375 -22.953125 33.644531 -21.957031 C 29.511719 -16.964844 23.523438 -10.835938 20.957031 -9.695312 C 20.386719 -10.265625 20.246094 -10.976562 20.246094 -11.976562 C 19.675781 -16.964844 22.527344 -25.378906 25.804688 -34.785156 L 29.652344 -46.335938 L 29.367188 -49.613281 C 30.507812 -53.035156 31.363281 -57.453125 31.933594 -61.160156 C 32.21875 -63.585938 32.648438 -66.007812 33.074219 -68.433594 L 45.335938 -67.863281 L 46.050781 -67.863281 C 46.476562 -67.71875 46.761719 -67.71875 47.332031 -67.71875 C 57.882812 -66.578125 67.578125 -63.15625 68.289062 -59.878906 L 70.285156 -59.878906 C 71.140625 -59.878906 72.140625 -60.164062 71.855469 -61.589844 C 71.285156 -65.722656 64.441406 -72.140625 48.757812 -73.707031 L 47.191406 -73.707031 C 46.761719 -73.566406 46.335938 -73.566406 46.050781 -73.566406 L 34.644531 -74.136719 C 36.496094 -80.40625 37.921875 -85.683594 39.0625 -90.671875 Z M 39.0625 -91.101562 "/></g></g></g><g fill="#232b21" fill-opacity="1"><g transform="translate(249.225528, 163.548505)"><g><path d="M 11.261719 -51.609375 C 11.40625 -55.316406 13.828125 -62.160156 16.394531 -62.015625 C 18.105469 -61.160156 15.96875 -54.746094 12.261719 -47.761719 C 12.261719 -47.761719 11.121094 -49.757812 11.261719 -51.609375 Z M 5.132812 48.617188 C 4.132812 49.328125 2.992188 49.898438 1.851562 50.183594 C 1.425781 50.46875 0.855469 50.613281 0.425781 50.613281 C 0 50.613281 -0.425781 50.46875 -0.710938 50.183594 C -2.421875 49.757812 -3.847656 49.042969 -4.703125 47.332031 C -3.707031 47.046875 -3.5625 46.335938 -3.277344 45.480469 C -0.285156 39.492188 5.84375 34.644531 11.261719 30.792969 C 12.6875 29.796875 14.257812 28.65625 15.539062 27.515625 C 17.820312 25.804688 20.101562 24.09375 22.242188 22.8125 C 24.09375 21.386719 25.378906 20.671875 26.515625 20.101562 C 21.671875 30.9375 13.6875 40.488281 5.132812 48.617188 Z M 36.070312 -6.273438 C 36.640625 -7.128906 37.210938 -7.839844 37.636719 -8.269531 C 37.78125 -7.839844 37.78125 -7.269531 37.78125 -6.84375 C 37.78125 -5.988281 37.636719 -5.132812 37.496094 -4.132812 C 37.496094 -3.992188 37.351562 -3.5625 37.351562 -3.277344 C 36.78125 0 26.515625 14.828125 24.238281 17.679688 C 23.238281 18.820312 19.816406 20.957031 15.539062 23.808594 C 9.265625 27.941406 3.136719 32.078125 -1.851562 37.78125 C -3.5625 39.492188 -5.132812 41.773438 -6.273438 43.769531 L -6.273438 44.339844 C -7.554688 46.335938 -8.269531 48.1875 -7.984375 49.613281 C -6.699219 55.601562 -2.421875 59.59375 3.277344 61.445312 C 4.132812 61.589844 4.988281 61.730469 5.988281 61.730469 C 12.832031 61.730469 20.386719 56.457031 24.949219 51.753906 L 24.949219 51.894531 L 26.660156 50.042969 C 28.371094 48.332031 29.9375 46.621094 31.507812 44.195312 L 32.648438 42.484375 C 35.355469 38.777344 38.492188 34.5 40.347656 30.367188 L 40.917969 29.226562 C 41.914062 27.230469 43.199219 24.664062 43.769531 23.097656 C 43.910156 21.957031 44.054688 21.386719 44.339844 20.816406 C 44.910156 18.820312 45.050781 17.535156 45.050781 15.539062 C 44.910156 15.253906 44.910156 15.113281 44.910156 14.96875 L 45.335938 9.550781 C 45.335938 9.265625 45.335938 7.414062 45.480469 7.414062 C 49.472656 5.558594 54.316406 1.140625 59.023438 -3.992188 L 59.023438 -3.847656 C 60.875 -5.703125 62.585938 -8.410156 64.296875 -10.976562 L 66.152344 -13.542969 C 67.007812 -14.683594 67.863281 -15.824219 68.574219 -17.109375 L 69.714844 -18.535156 C 71.140625 -20.671875 72.28125 -22.242188 72.996094 -24.09375 L 73.28125 -24.664062 L 73.28125 -24.523438 L 73.707031 -25.664062 C 74.277344 -27.085938 74.136719 -28.226562 73.136719 -28.796875 C 72.851562 -28.941406 72.566406 -28.941406 72.425781 -28.941406 C 71.710938 -28.941406 71.140625 -28.65625 70.855469 -27.941406 C 65.296875 -17.109375 54.746094 -4.988281 47.761719 0.285156 C 49.1875 -3.992188 49.898438 -7.839844 49.898438 -10.550781 C 49.898438 -15.398438 46.335938 -20.386719 41.488281 -21.527344 C 40.488281 -21.527344 39.917969 -21.101562 40.632812 -20.386719 L 40.632812 -20.53125 C 41.488281 -19.390625 27.515625 -2.566406 24.808594 -0.996094 C 22.097656 -2.566406 28.796875 -13.828125 36.355469 -21.8125 C 37.351562 -22.667969 38.351562 -23.382812 39.347656 -24.09375 L 43.199219 -27.371094 L 43.769531 -28.226562 C 44.480469 -29.652344 45.195312 -31.078125 45.621094 -32.21875 C 46.761719 -33.789062 47.191406 -35.214844 47.191406 -36.925781 C 47.191406 -39.0625 46.476562 -40.917969 45.765625 -42.914062 L 43.910156 -45.480469 C 43.484375 -46.191406 42.914062 -46.90625 42.34375 -47.617188 L 40.347656 -50.042969 C 39.347656 -51.039062 38.066406 -51.183594 36.925781 -51.183594 L 35.214844 -51.183594 L 34.074219 -51.46875 C 30.9375 -51.324219 19.960938 -48.332031 16.253906 -47.046875 C 16.253906 -47.332031 16.539062 -47.617188 17.535156 -49.328125 C 19.816406 -53.460938 23.808594 -60.449219 24.378906 -64.726562 C 24.664062 -69.429688 21.8125 -71.996094 17.964844 -71.996094 C 11.832031 -71.996094 5.132812 -63.726562 5.132812 -53.035156 C 5.132812 -52.039062 5.132812 -50.898438 5.273438 -49.898438 C 5.988281 -48.332031 6.273438 -47.191406 6.558594 -46.335938 C 7.128906 -44.765625 7.414062 -43.910156 9.265625 -42.34375 L 4.847656 -33.359375 C 4.847656 -33.074219 4.417969 -32.503906 3.992188 -31.792969 C 3.136719 -30.222656 1.710938 -28.085938 1.710938 -26.515625 C 1.710938 -25.234375 2.992188 -24.523438 4.132812 -24.523438 C 6.128906 -24.523438 8.839844 -30.792969 9.265625 -32.648438 C 9.835938 -34.359375 10.40625 -35.925781 10.691406 -36.355469 C 10.976562 -37.066406 11.40625 -37.921875 11.976562 -38.492188 C 12.402344 -39.207031 12.972656 -40.0625 13.257812 -41.058594 L 13.257812 -40.917969 C 13.402344 -41.058594 13.828125 -41.203125 14.257812 -41.203125 C 14.398438 -41.203125 14.542969 -41.203125 14.683594 -41.34375 C 15.398438 -41.203125 16.253906 -41.203125 16.824219 -41.203125 C 18.675781 -41.203125 20.101562 -41.34375 22.242188 -41.628906 C 22.953125 -41.773438 23.808594 -41.773438 24.523438 -41.773438 L 25.519531 -41.773438 L 24.378906 -39.632812 C 24.664062 -38.351562 24.238281 -37.210938 23.523438 -35.925781 C 23.238281 -35.070312 22.8125 -34.214844 22.097656 -33.359375 C 21.242188 -31.507812 20.101562 -29.796875 19.246094 -28.371094 C 16.394531 -24.238281 13.402344 -19.816406 11.691406 -15.683594 C 10.265625 -12.402344 8.839844 -7.699219 9.125 -4.703125 C 9.125 -4.132812 9.125 -3.847656 10.121094 -3.421875 L 10.121094 -2.707031 C 10.550781 -1.425781 11.121094 -0.855469 11.691406 -0.140625 L 12.117188 0.425781 L 12.117188 0.285156 C 13.828125 2.707031 15.96875 4.132812 17.964844 4.703125 L 21.242188 4.988281 L 22.527344 4.847656 C 23.523438 4.703125 24.523438 4.417969 25.378906 4.132812 C 27.65625 4.132812 32.933594 -2.421875 36.070312 -6.273438 Z M 10.121094 -1.28125 C 10.265625 -0.996094 10.121094 -2.421875 10.121094 -2.707031 Z M 10.121094 -1.28125 "/></g></g></g><g fill="#232b21" fill-opacity="1"><g transform="translate(15.550785, 276.448458)"><g><path d="M 17.546875 -37.695312 C 16.75 -39.046875 14.25 -40.496094 12.097656 -40.496094 C 11.050781 -40.496094 10.050781 -40.144531 9.449219 -39.195312 L 7.699219 -39.546875 L 8.148438 -39.644531 L 2.199219 -40.546875 C -1.199219 -41.097656 -4.199219 -41.394531 -6.550781 -41.394531 C -9.300781 -41.394531 -11.050781 -40.996094 -11.199219 -40.097656 C -11.199219 -39.945312 -11.148438 -39.796875 -10.75 -39.695312 C -10.597656 -39.644531 -10.5 -39.597656 -10.347656 -39.597656 C -10.25 -39.597656 -10.148438 -39.597656 -10 -39.695312 L -8.75 -39.296875 C -8.25 -39.347656 -7.648438 -39.347656 -7.050781 -39.347656 C -4.800781 -39.347656 -1.898438 -39.097656 2 -38.445312 C 4.199219 -38.046875 5.097656 -38.097656 6.75 -37.796875 L 7.75 -37.046875 L 9.199219 -36.847656 C 9.097656 -35.847656 9 -34.796875 9 -33.648438 C 8.949219 -32.597656 8.800781 -31.398438 8.648438 -30.097656 C 8.5 -29.246094 8.25 -28.347656 8.050781 -27.445312 C 7.398438 -23.648438 6 -19.199219 5.050781 -15.347656 C 4.25 -11.949219 3.648438 -8.75 3.851562 -6.699219 C 3.949219 -5.398438 2.449219 -3.699219 2.550781 -2.550781 L 2.601562 -2.300781 C 3.199219 -0.699219 3.949219 0.300781 5 0.300781 C 5.449219 0.300781 6.597656 -0.0507812 6.699219 -0.601562 L 7.398438 -1.699219 L 8 -3.050781 C 9.550781 -4.699219 11.75 -8.050781 12.75 -11.25 L 13.949219 -15.199219 L 15 -19.097656 C 15.75 -21.898438 16.199219 -24.449219 16.5 -26.496094 C 16.75 -27.746094 17.296875 -33.796875 17.546875 -35.796875 C 18.398438 -35.644531 25.898438 -34.097656 26.496094 -34.046875 C 29.246094 -33.597656 31.445312 -33.398438 33.246094 -33.398438 C 37.496094 -33.398438 39.195312 -34.445312 39.496094 -35.445312 C 39.546875 -35.996094 38.847656 -36.144531 38.394531 -36.144531 C 38.195312 -36.246094 38.046875 -36.246094 37.894531 -36.246094 C 37.644531 -35.695312 35.996094 -35.445312 33.648438 -35.445312 C 31.445312 -35.445312 28.648438 -35.644531 25.648438 -36.144531 C 25.199219 -36.246094 24.898438 -36.246094 24.449219 -36.394531 Z M 17.546875 -37.695312 "/></g></g></g><g fill="#232b21" fill-opacity="1"><g transform="translate(31.748282, 276.448458)"><g><path d="M 10.898438 -20.597656 C 10.699219 -20.597656 10.449219 -20.597656 10.199219 -20.496094 C 10.148438 -20.546875 10.097656 -20.546875 10 -20.546875 C 9.800781 -20.546875 9.5 -20.398438 9.25 -20.296875 C 9 -20.148438 8.800781 -20.046875 8.648438 -20.046875 L 8.300781 -20.046875 C 8.148438 -20.046875 8 -20.097656 7.847656 -20.097656 C 7.5 -20.097656 7.050781 -19.996094 6.597656 -19.597656 L 6.347656 -19.398438 L 6.347656 -19.449219 C 6.199219 -19.398438 6.097656 -19.296875 5.949219 -19.148438 C 5.347656 -18.648438 4.75 -18 4.199219 -17.347656 L 3.550781 -16.648438 C 3.050781 -16.296875 2.300781 -15 1.800781 -14.199219 L 1.601562 -13.898438 L 1.25 -12.949219 C 0.75 -11.949219 0.300781 -10.898438 0.0507812 -9.800781 C 0.0507812 -9.699219 0 -9.550781 0 -9.449219 C -0.0507812 -9.398438 -0.0507812 -9.300781 -0.0507812 -9.25 C -0.199219 -8.199219 -0.351562 -7.097656 -0.351562 -6.050781 C -0.300781 -6 -0.351562 -5.300781 -0.351562 -4.550781 C -0.398438 -3.800781 -0.398438 -3.050781 -0.398438 -3.050781 C -0.398438 -2.648438 -0.199219 -2.199219 0.0507812 -1.800781 L 0 -1.800781 C 0.351562 0.398438 1.550781 1.351562 2.449219 1.699219 L 2.5 1.75 C 3.648438 2.5 5.449219 2.75 6.800781 2.75 C 8.347656 2.75 9.300781 2.050781 10.597656 1.199219 L 12.148438 0.148438 C 13.046875 -0.449219 14.097656 -1.601562 14.796875 -2.449219 L 14.898438 -2.550781 C 15.347656 -3.351562 16.296875 -4.199219 16.898438 -5 L 17.898438 -6.300781 L 18.046875 -6.75 C 18.097656 -6.847656 18.148438 -6.898438 18.148438 -7 L 18.398438 -7.398438 C 19 -8.148438 19.597656 -9.050781 19.847656 -9.597656 C 20.546875 -10.5 21.046875 -11.148438 20.996094 -11.699219 C 20.949219 -11.949219 20.949219 -12.046875 20.847656 -12.046875 C 20.847656 -12.046875 20.796875 -12 20.699219 -11.949219 L 20.699219 -12 L 20.449219 -11.898438 C 20.347656 -11.898438 20.148438 -11.847656 19.996094 -11.75 C 19.546875 -11.597656 18.546875 -9.898438 17.597656 -8.347656 C 17.097656 -7.5 16.296875 -6.699219 15.949219 -6.199219 C 15.796875 -5.949219 15.546875 -5.597656 15.398438 -5.300781 C 12.546875 -1.699219 8.800781 0.398438 7.347656 0.398438 C 6.5 0.398438 5.550781 0.0507812 5.5 -0.5 C 5.449219 -1.101562 5.347656 -2.050781 5.347656 -3 C 5.347656 -4.199219 5.449219 -5.398438 5.898438 -5.949219 L 7.148438 -6.550781 C 7.699219 -6.800781 9.75 -8.449219 10.398438 -9.148438 C 11.300781 -9.847656 12.148438 -10.699219 12.796875 -11.597656 L 13.046875 -11.796875 C 13.75 -12.597656 14.796875 -14.449219 14.898438 -14.898438 C 15.25 -15.648438 15.398438 -16.398438 15.398438 -17.097656 C 14.949219 -20.496094 11.449219 -20.597656 10.898438 -20.597656 Z M 10.449219 -14.449219 C 11.199219 -15.449219 12.148438 -16.449219 12.546875 -16.546875 C 12.75 -16.449219 12.898438 -16.25 13.046875 -16.148438 C 12.949219 -14.347656 11.398438 -12.046875 9.398438 -10.097656 L 8.300781 -9.199219 C 7.949219 -8.898438 7.550781 -8.550781 7.148438 -8.347656 C 7.449219 -9.347656 8.5 -11.5 9.847656 -13.546875 C 9.847656 -13.597656 9.949219 -13.699219 9.949219 -13.75 C 10 -13.949219 10.148438 -14.148438 10.199219 -14.25 Z M 10.449219 -14.449219 "/></g></g></g><g fill="#232b21" fill-opacity="1"><g transform="translate(49.395551, 276.448458)"><g><path d="M 0.851562 -10 C 0.949219 -9.050781 1.101562 -8.75 1.351562 -8.75 C 1.648438 -8.75 3.75 -11.898438 4.050781 -12.648438 L 4.800781 -14.199219 L 4.800781 -14.148438 C 5.148438 -14.546875 5 -14.546875 5.148438 -15.046875 C 5.398438 -15.699219 5.699219 -16.148438 5.949219 -16.5 C 6 -16.546875 6.050781 -16.597656 6.148438 -16.597656 C 6.449219 -16.597656 6.898438 -16.347656 7.199219 -16.25 C 7.550781 -16.097656 7.898438 -16 8.199219 -16 C 8.25 -16 8.347656 -16.046875 8.449219 -16.097656 C 8.5 -16.046875 8.5 -16.046875 8.597656 -16.046875 C 8.699219 -16.046875 8.949219 -16.199219 9.148438 -16.296875 C 9.199219 -16.347656 9.25 -16.347656 9.300781 -16.347656 L 9.300781 -16.296875 C 9.300781 -16.199219 9.300781 -16.097656 9.25 -16 L 9.199219 -15.597656 C 9.199219 -15.597656 9.25 -15.546875 9.25 -15.597656 C 9.347656 -14.699219 8.800781 -13.699219 8.300781 -12.648438 C 7.648438 -11.347656 6.847656 -9.597656 6.847656 -7.949219 C 6.800781 -7.148438 6.597656 -6.25 6.398438 -5.449219 C 6.199219 -4.550781 6.050781 -3.75 6.097656 -3.148438 C 6.5 1.300781 8.800781 4.597656 12.949219 4.949219 C 14.796875 4.949219 16.796875 4.398438 19.097656 1.351562 C 19.597656 0.300781 20.097656 -0.75 20.746094 -1.75 L 21.246094 -2.5 C 21.597656 -2.949219 22.449219 -4.699219 22.996094 -5.800781 L 23.398438 -6.597656 L 23.699219 -7.449219 C 24.949219 -10.5 24.796875 -11.050781 24.496094 -11.25 L 24.546875 -11.25 L 24.449219 -11.347656 C 24.398438 -11.5 24.398438 -11.597656 24.398438 -11.699219 C 24.398438 -11.949219 24.398438 -12.097656 24.347656 -12.097656 C 23.898438 -12.097656 23.148438 -9.597656 23.046875 -9.25 C 22.847656 -8.597656 22.597656 -7.898438 22.246094 -7.050781 C 20.546875 -2.550781 16.5 2.75 14.597656 2.75 C 14.5 2.75 14.347656 2.75 14.25 2.648438 C 14 2.800781 13.796875 2.898438 13.648438 2.898438 C 12.75 2.898438 12.5 0.898438 12.296875 -0.601562 L 12.25 -1.050781 C 12.347656 -1.148438 12.296875 -1.199219 12.296875 -1.351562 L 12.199219 -2.351562 L 12.199219 -3.101562 C 12.199219 -4.148438 12.347656 -5.25 12.648438 -6.347656 L 13.699219 -8.75 C 14.398438 -10.847656 15.25 -12.5 15.949219 -13.75 C 16.648438 -15.046875 17.148438 -16 17.097656 -16.597656 C 16.949219 -18.347656 14 -20.449219 13.296875 -20.449219 C 13 -20.398438 11.898438 -19.949219 10.398438 -19.046875 L 8.398438 -17.847656 L 8.449219 -17.847656 C 8.199219 -17.75 8 -17.699219 7.800781 -17.699219 C 7.800781 -17.699219 7.800781 -17.75 7.75 -17.796875 L 7.75 -17.75 L 7.550781 -18.148438 L 7.449219 -18.148438 C 7.097656 -18.148438 6.949219 -18.5 6.847656 -18.5 C 6.800781 -18.5 6.75 -18.449219 6.75 -18.449219 C 6.847656 -18.796875 7 -18.949219 7.347656 -19.699219 C 8.398438 -21.898438 10.050781 -25.449219 9.898438 -27.898438 C 9.75 -29.398438 8.550781 -30.296875 7.148438 -30.296875 C 3.800781 -30.296875 1.800781 -25.148438 1.949219 -21.699219 C 1.949219 -21.449219 2.050781 -21.246094 2.148438 -21.097656 L 2.199219 -20.847656 C 2.199219 -20.546875 2.75 -19.796875 3.300781 -19.046875 C 3.851562 -18.347656 4.398438 -17.597656 4.398438 -17.398438 C 4.449219 -16.699219 3.5 -14.796875 2.800781 -13.5 C 2.398438 -12.75 0.851562 -10.097656 0.851562 -10 Z M -19.5 4.898438 C -23.097656 4.898438 -26.597656 5.148438 -29.347656 5.449219 C -30.046875 5.597656 -30.746094 5.699219 -31.445312 5.699219 C -31.898438 5.75 -33.046875 5.949219 -36.597656 7.097656 L -38.546875 7.949219 L -35.996094 8 C -35.945312 8 -35.894531 8.050781 -35.847656 8.050781 C -35.746094 8.050781 -35.597656 8 -35.496094 7.949219 C -34.945312 7.847656 -33.945312 7.847656 -32.796875 7.800781 C -31.398438 7.800781 -29.796875 7.75 -28.996094 7.550781 C -27.945312 7.300781 -26.449219 7.199219 -24.949219 7.097656 C -23.898438 7.050781 -22.847656 6.949219 -21.996094 6.800781 C -21.949219 6.75 -21.949219 6.75 -21.898438 6.75 C -21.796875 6.75 -21.746094 6.847656 -21.648438 6.847656 C -21.597656 6.898438 -21.597656 6.847656 -21.546875 6.847656 L -20.996094 6.847656 C -15.75 7.097656 -11.699219 7.398438 -7.050781 8.699219 C -5.75 9.148438 -4.347656 9.5 -2.898438 9.898438 C 1.25 11.050781 5.5 12.296875 6.5 13.949219 C 7.25 15.25 7.648438 16.097656 8.148438 16.097656 C 8.75 16.097656 9.75 15.046875 11.898438 12.597656 L 12.597656 11.796875 C 11.597656 10.097656 9.597656 7.597656 4.648438 7.148438 C 0.851562 5.648438 -2.800781 4.347656 -8.550781 4.347656 C -10.75 4.347656 -13.199219 4.550781 -16.148438 4.949219 C -17.25 4.898438 -18.398438 4.898438 -19.5 4.898438 Z M 7.5 -26.246094 C 7.648438 -26.199219 7.75 -25.996094 7.75 -25.796875 C 7.847656 -24.648438 6.847656 -21.996094 5.75 -19.597656 L 5.699219 -19.796875 C 5.5 -20.246094 5.199219 -20.996094 5.097656 -21.746094 C 5.097656 -23.199219 6.597656 -25.847656 7.5 -26.246094 Z M 7.5 -26.246094 "/></g></g></g><g fill="#232b21" fill-opacity="1"><g transform="translate(71.29216, 276.448458)"><g><path d="M 4.398438 -3.449219 L 4.347656 -3.5 C 4.347656 -3.648438 4.5 -4.148438 4.597656 -4.5 L 4.597656 -4.449219 L 4.648438 -4.75 C 5 -5.648438 5.25 -6.199219 5.597656 -6.949219 L 6.050781 -7.898438 C 6.347656 -8.699219 6.648438 -9.398438 7.148438 -10.199219 C 7.398438 -11.300781 8.5 -12.25 9.398438 -13.046875 L 10.300781 -13.898438 C 11.398438 -15.097656 13.75 -15.5 14.847656 -15.5 C 14.949219 -15.5 15.097656 -15.5 15.199219 -15.449219 C 15.648438 -15.546875 15.847656 -15.898438 15.796875 -16.398438 C 15.699219 -17.347656 13.148438 -19.148438 11.796875 -19.5 L 11.550781 -19.5 C 10.449219 -19.5 8.148438 -18.796875 6.847656 -17.898438 L 6.898438 -17.898438 L 6.148438 -17.546875 C 4.398438 -16.347656 3 -14.597656 1.75 -12.949219 L 1.300781 -11.949219 C -0.25 -9.398438 -1.449219 -6.25 -1.300781 -4 C -0.949219 -0.351562 2.300781 1 4.75 1 C 5.199219 1 5.800781 0.550781 6.449219 0.0507812 L 6.648438 -0.101562 C 7.25 -0.148438 7.898438 -1.050781 8.449219 -1.898438 C 8.597656 -2.148438 8.699219 -2.398438 8.949219 -2.648438 L 9.898438 -4.550781 L 9.898438 -4.5 L 10.597656 -5.550781 C 10.597656 -5.449219 10.597656 -5.597656 10.550781 -5.300781 C 10.550781 -5.25 10.5 -5.199219 10.5 -5.148438 L 10.550781 -4.75 C 10.597656 -4.398438 10.597656 -4.148438 10.597656 -3.898438 C 10.597656 -3.648438 10.597656 -3.300781 10.648438 -3.050781 C 10.648438 -2.601562 10.75 -2.050781 10.898438 -1.648438 C 11.25 -0.398438 12.898438 1.601562 14.449219 1.601562 C 14.847656 1.601562 15.199219 1.449219 15.597656 1.300781 L 16 1.148438 C 16.949219 1.101562 19.046875 -0.898438 19.449219 -1.800781 C 19.847656 -2.300781 20.648438 -3.648438 21.449219 -4.949219 C 22.199219 -6.148438 22.898438 -7.300781 23.246094 -7.75 C 24.097656 -9.25 24.746094 -10.148438 25.148438 -10.699219 C 25.449219 -11.148438 25.597656 -11.398438 25.597656 -11.550781 C 25.648438 -11.796875 25.648438 -11.949219 25.648438 -12.097656 C 25.597656 -12.449219 25.398438 -12.597656 25.148438 -12.597656 C 24.949219 -12.597656 24.699219 -12.5 24.546875 -12.347656 L 23.347656 -10.449219 C 23.097656 -9.949219 22.597656 -9.300781 22.398438 -8.847656 C 22.046875 -8.050781 21.597656 -7.5 21.347656 -7.097656 L 19.847656 -4.449219 C 18.898438 -2.898438 17.046875 -0.550781 15.847656 -0.550781 C 15.597656 -0.550781 15.097656 -0.601562 15.097656 -0.75 C 15.046875 -0.949219 15.25 -1.398438 15.546875 -2 L 16.148438 -3.800781 C 16.25 -4.25 16.398438 -4.648438 16.546875 -5.050781 C 16.796875 -5.648438 17 -6.25 17.046875 -7.050781 C 17.046875 -8.148438 17.25 -8.648438 17.398438 -8.949219 C 17.449219 -9.097656 17.5 -9.300781 17.5 -9.449219 C 17.5 -9.550781 17.648438 -10.050781 17.847656 -10.550781 C 18.097656 -11.199219 18.398438 -11.949219 18.347656 -12.097656 C 18.296875 -12.5 18.046875 -12.648438 17.796875 -12.847656 L 17.847656 -12.847656 L 17.75 -12.898438 L 17.75 -12.949219 C 17.75 -13 17.75 -13.046875 17.699219 -13.148438 C 16.949219 -13.847656 16.199219 -13.847656 15.25 -13.847656 C 14.699219 -13.847656 12.898438 -13.75 12.898438 -13.097656 C 12.75 -12.699219 12.597656 -12.398438 12.5 -12.296875 C 12.347656 -12.097656 12.148438 -11.847656 11.949219 -11.25 C 11.796875 -10.699219 11.648438 -10.148438 11.449219 -9.75 C 10.949219 -9 10.449219 -7.949219 9.898438 -6.800781 C 9.148438 -5.300781 8.300781 -3.550781 7.5 -2.449219 C 6.898438 -1.800781 6.347656 -1.199219 5.398438 -1.199219 L 5.25 -1.199219 C 4.949219 -1.199219 4.75 -1.449219 4.699219 -1.949219 C 4.699219 -2.101562 4.648438 -2.199219 4.597656 -2.300781 C 4.550781 -2.5 4.5 -2.75 4.5 -2.949219 Z M 4.398438 -3.449219 "/></g></g></g><g fill="#232b21" fill-opacity="1"><g transform="translate(93.43873, 276.448458)"><g><path d="M 6.800781 -12.546875 C 6.847656 -12.796875 6.847656 -13.347656 6.800781 -13.75 C 6.699219 -15 6.648438 -15.847656 5.699219 -16.699219 L 5.398438 -16.898438 C 5.050781 -19.148438 3.800781 -19.796875 2.898438 -19.796875 C 1.550781 -19.796875 1.601562 -18.898438 1.648438 -17.898438 C 1.699219 -17.597656 1.699219 -17.25 1.699219 -17 C 1.800781 -15.949219 1.148438 -13.25 -0.300781 -9.398438 L -1.25 -7.050781 L -1.199219 -6.75 C -1.148438 -5.800781 -1.449219 -4.949219 -1.75 -4.097656 L -2.050781 -3.148438 L -2.050781 -2.300781 C -2.050781 -2.101562 -2.050781 -2.050781 -2 -2 L -2.898438 0.800781 C -2.800781 1.5 -3.25 2.550781 -3.601562 3.300781 L -3.75 3.648438 C -3.648438 4.75 -3.851562 5.648438 -4.050781 6.449219 L -4.300781 7.449219 C -4.699219 9.398438 -4.949219 11.148438 -4.949219 12.699219 C -4.800781 14.046875 -3.449219 15.296875 -3 15.296875 C -2.75 15.296875 -2.648438 15.148438 -2.648438 14.898438 L -1.800781 14.347656 C 0 13.898438 0.648438 11.699219 1.199219 9.347656 C 1.449219 8.347656 1.648438 7.347656 2.050781 6.300781 L 2.050781 6.050781 L 2.398438 5.050781 C 2.800781 4.097656 3.101562 3.25 3 1.949219 C 3.101562 1.648438 3.148438 1.351562 3.300781 1 C 3.648438 0 4 -1.050781 3.949219 -1.800781 L 5.050781 -4.449219 L 4.949219 -5.347656 C 4.847656 -5.800781 4.800781 -6.199219 4.75 -6.597656 C 6.648438 -10.550781 10.597656 -14.847656 12.398438 -15.199219 C 12.796875 -15.148438 13.199219 -14.449219 13.449219 -14.046875 L 13.546875 -13.847656 C 13.546875 -13.75 13.597656 -13.597656 13.597656 -13.5 C 13.648438 -13.449219 13.648438 -13.347656 13.648438 -13.398438 C 14 -9.648438 10.550781 -4.148438 10.050781 -3.75 L 10.097656 -3.75 L 9.347656 -3.398438 C 7.648438 -2.648438 4.398438 -1.199219 4.597656 0.949219 C 4.699219 2 5.199219 2.601562 8 3.25 C 8.449219 3.25 8.949219 3.199219 9.300781 3.148438 L 10.199219 3.101562 C 12.398438 3.101562 13.847656 1.5 15.648438 -0.449219 C 16.449219 -1.351562 17.449219 -2.851562 17.648438 -4.398438 C 17.898438 -4.648438 17.898438 -4.75 18.449219 -4.949219 C 18.75 -5.097656 19.199219 -5.347656 19.597656 -5.5 C 21.148438 -6.699219 19.796875 -5.699219 20.996094 -6.75 L 21.046875 -6.949219 C 22.296875 -7.398438 24.496094 -12.148438 24.648438 -12.699219 C 24.648438 -12.75 24.546875 -12.796875 24.546875 -12.796875 C 24.496094 -13.097656 24.398438 -13.296875 24.199219 -13.296875 L 23.796875 -13.148438 C 23.796875 -13.199219 22.996094 -12 22.996094 -12.046875 C 21.398438 -8.949219 20.597656 -7.449219 17.898438 -6.347656 C 18.5 -7.847656 18.699219 -9.597656 18.546875 -10.949219 C 18.5 -11.449219 18.398438 -11.898438 18.296875 -12.398438 L 18.25 -12.597656 L 17.25 -13.5 C 16.648438 -14.796875 15.449219 -17 13.148438 -17 C 10.75 -17 8.75 -14.796875 7.5 -13.398438 Z M 6.898438 0.398438 C 7.25 -0.398438 8.847656 -1.5 9.75 -2 L 8.949219 -0.699219 C 8.398438 0.0507812 7.398438 0.601562 7.097656 0.601562 C 7 0.601562 6.949219 0.550781 6.898438 0.398438 Z M 6.898438 0.398438 "/></g></g></g><g fill="#232b21" fill-opacity="1"><g transform="translate(114.335492, 276.448458)"><g><path d="M 10.898438 -20.597656 C 10.699219 -20.597656 10.449219 -20.597656 10.199219 -20.496094 C 10.148438 -20.546875 10.097656 -20.546875 10 -20.546875 C 9.800781 -20.546875 9.5 -20.398438 9.25 -20.296875 C 9 -20.148438 8.800781 -20.046875 8.648438 -20.046875 L 8.300781 -20.046875 C 8.148438 -20.046875 8 -20.097656 7.847656 -20.097656 C 7.5 -20.097656 7.050781 -19.996094 6.597656 -19.597656 L 6.347656 -19.398438 L 6.347656 -19.449219 C 6.199219 -19.398438 6.097656 -19.296875 5.949219 -19.148438 C 5.347656 -18.648438 4.75 -18 4.199219 -17.347656 L 3.550781 -16.648438 C 3.050781 -16.296875 2.300781 -15 1.800781 -14.199219 L 1.601562 -13.898438 L 1.25 -12.949219 C 0.75 -11.949219 0.300781 -10.898438 0.0507812 -9.800781 C 0.0507812 -9.699219 0 -9.550781 0 -9.449219 C -0.0507812 -9.398438 -0.0507812 -9.300781 -0.0507812 -9.25 C -0.199219 -8.199219 -0.351562 -7.097656 -0.351562 -6.050781 C -0.300781 -6 -0.351562 -5.300781 -0.351562 -4.550781 C -0.398438 -3.800781 -0.398438 -3.050781 -0.398438 -3.050781 C -0.398438 -2.648438 -0.199219 -2.199219 0.0507812 -1.800781 L 0 -1.800781 C 0.351562 0.398438 1.550781 1.351562 2.449219 1.699219 L 2.5 1.75 C 3.648438 2.5 5.449219 2.75 6.800781 2.75 C 8.347656 2.75 9.300781 2.050781 10.597656 1.199219 L 12.148438 0.148438 C 13.046875 -0.449219 14.097656 -1.601562 14.796875 -2.449219 L 14.898438 -2.550781 C 15.347656 -3.351562 16.296875 -4.199219 16.898438 -5 L 17.898438 -6.300781 L 18.046875 -6.75 C 18.097656 -6.847656 18.148438 -6.898438 18.148438 -7 L 18.398438 -7.398438 C 19 -8.148438 19.597656 -9.050781 19.847656 -9.597656 C 20.546875 -10.5 21.046875 -11.148438 20.996094 -11.699219 C 20.949219 -11.949219 20.949219 -12.046875 20.847656 -12.046875 C 20.847656 -12.046875 20.796875 -12 20.699219 -11.949219 L 20.699219 -12 L 20.449219 -11.898438 C 20.347656 -11.898438 20.148438 -11.847656 19.996094 -11.75 C 19.546875 -11.597656 18.546875 -9.898438 17.597656 -8.347656 C 17.097656 -7.5 16.296875 -6.699219 15.949219 -6.199219 C 15.796875 -5.949219 15.546875 -5.597656 15.398438 -5.300781 C 12.546875 -1.699219 8.800781 0.398438 7.347656 0.398438 C 6.5 0.398438 5.550781 0.0507812 5.5 -0.5 C 5.449219 -1.101562 5.347656 -2.050781 5.347656 -3 C 5.347656 -4.199219 5.449219 -5.398438 5.898438 -5.949219 L 7.148438 -6.550781 C 7.699219 -6.800781 9.75 -8.449219 10.398438 -9.148438 C 11.300781 -9.847656 12.148438 -10.699219 12.796875 -11.597656 L 13.046875 -11.796875 C 13.75 -12.597656 14.796875 -14.449219 14.898438 -14.898438 C 15.25 -15.648438 15.398438 -16.398438 15.398438 -17.097656 C 14.949219 -20.496094 11.449219 -20.597656 10.898438 -20.597656 Z M 10.449219 -14.449219 C 11.199219 -15.449219 12.148438 -16.449219 12.546875 -16.546875 C 12.75 -16.449219 12.898438 -16.25 13.046875 -16.148438 C 12.949219 -14.347656 11.398438 -12.046875 9.398438 -10.097656 L 8.300781 -9.199219 C 7.949219 -8.898438 7.550781 -8.550781 7.148438 -8.347656 C 7.449219 -9.347656 8.5 -11.5 9.847656 -13.546875 C 9.847656 -13.597656 9.949219 -13.699219 9.949219 -13.75 C 10 -13.949219 10.148438 -14.148438 10.199219 -14.25 Z M 10.449219 -14.449219 "/></g></g></g><g fill="#232b21" fill-opacity="1"><g transform="translate(131.982761, 276.448458)"><g><path d="M 2.550781 -16.046875 C 2.398438 -15.597656 2.300781 -15.097656 2.25 -14.796875 L 2.101562 -13.347656 C 1.898438 -12 1.5 -11.796875 1.199219 -10.449219 C 1.199219 -10.050781 1.300781 -9.597656 1.300781 -9.199219 C 1.199219 -8.800781 1 -8.398438 0.851562 -8.050781 L 0.351562 -6.847656 L 0.75 -4.148438 C 0.800781 -3.75 0.898438 -3.398438 1.148438 -3 C 1 -2.398438 1 -1.898438 1 -1.5 C 1.199219 0.648438 2.800781 1.5 4 1.5 C 5.550781 1.5 7.398438 -0.449219 8.800781 -2.300781 C 9.300781 -2.75 9.550781 -3.398438 9.699219 -3.898438 C 9.847656 -4.347656 10 -4.800781 10.300781 -5.148438 L 10.699219 -5.847656 C 11.097656 -6.5 11.648438 -7.5 11.75 -7.199219 C 11.796875 -7.199219 11.648438 -6.199219 11.5 -5.300781 C 11.347656 -4.5 11.148438 -3.75 11.347656 -3.648438 C 11.25 -3.25 11.25 -2.800781 11.300781 -2.351562 C 11.449219 -0.601562 12.648438 1.449219 14.449219 1.699219 L 14.546875 1.699219 C 14.75 1.75 14.898438 1.800781 15.148438 1.800781 C 16.046875 1.800781 18.648438 0.601562 19.898438 -1.5 C 19.949219 -1.601562 20.097656 -1.75 20.199219 -1.851562 C 20.296875 -2 20.449219 -2.101562 20.496094 -2.351562 L 22.496094 -5.148438 C 22.847656 -5.648438 23.046875 -6.199219 23.199219 -6.800781 C 23.796875 -7.597656 24.347656 -8.5 24.597656 -9.148438 C 24.496094 -9.648438 25.046875 -10.648438 25.347656 -11.199219 C 25.496094 -11.398438 25.648438 -11.597656 25.648438 -11.648438 L 25.597656 -11.648438 C 25.746094 -11.949219 25.796875 -12.148438 25.746094 -12.296875 C 25.699219 -12.648438 25.496094 -12.847656 25.199219 -12.847656 C 24.246094 -12.847656 23.449219 -10.550781 23.097656 -9.449219 L 22.949219 -9.050781 L 22.996094 -9.050781 C 22.347656 -7.949219 21.746094 -6.949219 21.046875 -5.847656 L 20.597656 -5 C 18.949219 -2.699219 16.796875 -0.101562 16 0 C 15.898438 -0.0507812 15.796875 -0.25 15.75 -0.300781 C 15.796875 -0.800781 16.148438 -1.800781 16.699219 -2.949219 L 16.699219 -3.050781 C 16.75 -3.199219 16.75 -3.351562 16.75 -3.5 C 16.75 -3.601562 16.699219 -3.648438 16.648438 -3.800781 C 16.699219 -4.300781 17.097656 -5.25 17.5 -6.050781 L 17.449219 -6.050781 C 17.648438 -6.449219 17.847656 -6.847656 17.949219 -7.148438 L 17.898438 -8.050781 L 18.046875 -8.648438 C 18.347656 -9.847656 18.648438 -11.097656 18.847656 -12.25 C 18.796875 -13 18.597656 -13.25 17.699219 -14.046875 C 17.75 -14.449219 17.75 -14.847656 17.699219 -15.148438 C 17.546875 -17.046875 15.898438 -18.199219 15 -18.199219 C 14.597656 -18.199219 14.347656 -17.398438 14 -16.347656 C 13.75 -15.546875 13.398438 -14.5 13.097656 -13.796875 L 13.097656 -13.597656 C 13.097656 -13.5 13.097656 -13.398438 13.148438 -13.347656 C 13.199219 -12.546875 12.347656 -11.050781 11.75 -10.050781 L 11.550781 -9.648438 C 9.550781 -5.898438 6.347656 -1.449219 5.199219 -0.699219 C 5.050781 -0.75 5.050781 -0.851562 5 -1.101562 C 4.949219 -1.648438 5.550781 -3.351562 6.148438 -5.050781 C 6.5 -6 6.847656 -7.050781 7.148438 -8 C 7.25 -9.347656 7.597656 -10.449219 7.949219 -11.550781 L 8.148438 -12.25 C 8.050781 -12.898438 7.847656 -14.449219 6.25 -15.25 C 5.550781 -15.597656 5.347656 -16.046875 5.097656 -16.5 L 5.148438 -16.5 C 4.800781 -17.148438 4.550781 -17.699219 3.101562 -17.699219 C 2.800781 -17.699219 2.648438 -17.546875 2.699219 -17.347656 C 2.699219 -17.25 2.699219 -17.148438 2.75 -17.097656 L 2.75 -17.046875 C 2.75 -16.847656 2.648438 -16.449219 2.550781 -16.046875 Z M 2.550781 -16.046875 "/></g></g></g><g fill="#232b21" fill-opacity="1"><g transform="translate(154.429281, 276.448458)"><g><path d="M 13.699219 -31.945312 C 13.449219 -32.148438 13.296875 -32.796875 13.148438 -33.347656 L 12.847656 -34.296875 L 12.847656 -35.148438 C 12.546875 -37.695312 10.050781 -39.144531 9.148438 -39.144531 C 8.347656 -39.144531 8.148438 -37.394531 7.949219 -35.347656 C 7.847656 -34.296875 7.75 -33.046875 7.550781 -31.898438 C 7.5 -31.597656 7.347656 -31.195312 7.199219 -30.847656 C 7.050781 -30.546875 6.949219 -30.246094 6.847656 -29.796875 L 6.847656 -29.847656 L 5.648438 -26.597656 C 5.097656 -26.648438 4.449219 -26.699219 3.898438 -26.699219 L 2.148438 -26.796875 C -0.75 -27.046875 -2.949219 -27.648438 -4.449219 -28.246094 L -5.148438 -28.148438 C -5.300781 -28.296875 -5.398438 -28.347656 -5.5 -28.347656 C -5.550781 -28.347656 -5.648438 -28.296875 -5.699219 -28.246094 C -5.949219 -28.246094 -6.050781 -28.046875 -6.050781 -27.847656 C -5.699219 -26.246094 -2.101562 -24.949219 2.199219 -24.496094 L 4.949219 -24.199219 C 4.800781 -23.449219 4.699219 -22.746094 4.597656 -22.046875 C 4.347656 -20.699219 4.148438 -19.25 3.75 -17.949219 L 3.75 -18 C 3.550781 -17.5 3.398438 -16.796875 3.25 -16.148438 L 3.050781 -15.296875 C 3.050781 -15.148438 3.101562 -15 3.101562 -14.847656 C 1.851562 -11.449219 1.101562 -8 1.199219 -6.199219 C 1.351562 -5.097656 2.898438 -3.648438 3.898438 -2.75 C 4.347656 -1.75 5.097656 -1 6.550781 -1 C 7.847656 -1 9.800781 -2.800781 11.5 -4.699219 L 13.296875 -6.949219 C 16.296875 -10.699219 18.148438 -14.097656 18.347656 -15.449219 C 18.347656 -15.546875 18.347656 -15.699219 18.25 -15.847656 L 18.296875 -15.898438 L 18.296875 -15.847656 C 18.347656 -16 18.398438 -16.148438 18.347656 -16.296875 C 18.347656 -16.546875 18.097656 -16.75 17.898438 -16.75 C 17.398438 -16.75 15.699219 -13.5 15.097656 -12.296875 L 15.097656 -12.347656 L 14.847656 -11.847656 C 14.398438 -10.847656 13.5 -9.75 12.699219 -8.75 C 12.398438 -8.398438 12.046875 -8.050781 11.796875 -7.699219 C 10.347656 -5.949219 8.25 -3.800781 7.347656 -3.398438 C 7.148438 -3.601562 7.097656 -3.851562 7.097656 -4.199219 C 6.898438 -5.949219 7.898438 -8.898438 9.050781 -12.199219 L 10.398438 -16.25 L 10.300781 -17.398438 C 10.699219 -18.597656 11 -20.148438 11.199219 -21.449219 C 11.300781 -22.296875 11.449219 -23.148438 11.597656 -23.996094 L 15.898438 -23.796875 L 16.148438 -23.796875 C 16.296875 -23.746094 16.398438 -23.746094 16.597656 -23.746094 C 20.296875 -23.347656 23.699219 -22.148438 23.949219 -20.996094 L 24.648438 -20.996094 C 24.949219 -20.996094 25.296875 -21.097656 25.199219 -21.597656 C 24.996094 -23.046875 22.597656 -25.296875 17.097656 -25.847656 L 16.546875 -25.847656 C 16.398438 -25.796875 16.25 -25.796875 16.148438 -25.796875 L 12.148438 -25.996094 C 12.796875 -28.195312 13.296875 -30.046875 13.699219 -31.796875 Z M 13.699219 -31.945312 "/></g></g></g><g fill="#232b21" fill-opacity="1"><g transform="translate(167.177312, 276.448458)"><g><path d="M 4.398438 -3.449219 L 4.347656 -3.5 C 4.347656 -3.648438 4.5 -4.148438 4.597656 -4.5 L 4.597656 -4.449219 L 4.648438 -4.75 C 5 -5.648438 5.25 -6.199219 5.597656 -6.949219 L 6.050781 -7.898438 C 6.347656 -8.699219 6.648438 -9.398438 7.148438 -10.199219 C 7.398438 -11.300781 8.5 -12.25 9.398438 -13.046875 L 10.300781 -13.898438 C 11.398438 -15.097656 13.75 -15.5 14.847656 -15.5 C 14.949219 -15.5 15.097656 -15.5 15.199219 -15.449219 C 15.648438 -15.546875 15.847656 -15.898438 15.796875 -16.398438 C 15.699219 -17.347656 13.148438 -19.148438 11.796875 -19.5 L 11.550781 -19.5 C 10.449219 -19.5 8.148438 -18.796875 6.847656 -17.898438 L 6.898438 -17.898438 L 6.148438 -17.546875 C 4.398438 -16.347656 3 -14.597656 1.75 -12.949219 L 1.300781 -11.949219 C -0.25 -9.398438 -1.449219 -6.25 -1.300781 -4 C -0.949219 -0.351562 2.300781 1 4.75 1 C 5.199219 1 5.800781 0.550781 6.449219 0.0507812 L 6.648438 -0.101562 C 7.25 -0.148438 7.898438 -1.050781 8.449219 -1.898438 C 8.597656 -2.148438 8.699219 -2.398438 8.949219 -2.648438 L 9.898438 -4.550781 L 9.898438 -4.5 L 10.597656 -5.550781 C 10.597656 -5.449219 10.597656 -5.597656 10.550781 -5.300781 C 10.550781 -5.25 10.5 -5.199219 10.5 -5.148438 L 10.550781 -4.75 C 10.597656 -4.398438 10.597656 -4.148438 10.597656 -3.898438 C 10.597656 -3.648438 10.597656 -3.300781 10.648438 -3.050781 C 10.648438 -2.601562 10.75 -2.050781 10.898438 -1.648438 C 11.25 -0.398438 12.898438 1.601562 14.449219 1.601562 C 14.847656 1.601562 15.199219 1.449219 15.597656 1.300781 L 16 1.148438 C 16.949219 1.101562 19.046875 -0.898438 19.449219 -1.800781 C 19.847656 -2.300781 20.648438 -3.648438 21.449219 -4.949219 C 22.199219 -6.148438 22.898438 -7.300781 23.246094 -7.75 C 24.097656 -9.25 24.746094 -10.148438 25.148438 -10.699219 C 25.449219 -11.148438 25.597656 -11.398438 25.597656 -11.550781 C 25.648438 -11.796875 25.648438 -11.949219 25.648438 -12.097656 C 25.597656 -12.449219 25.398438 -12.597656 25.148438 -12.597656 C 24.949219 -12.597656 24.699219 -12.5 24.546875 -12.347656 L 23.347656 -10.449219 C 23.097656 -9.949219 22.597656 -9.300781 22.398438 -8.847656 C 22.046875 -8.050781 21.597656 -7.5 21.347656 -7.097656 L 19.847656 -4.449219 C 18.898438 -2.898438 17.046875 -0.550781 15.847656 -0.550781 C 15.597656 -0.550781 15.097656 -0.601562 15.097656 -0.75 C 15.046875 -0.949219 15.25 -1.398438 15.546875 -2 L 16.148438 -3.800781 C 16.25 -4.25 16.398438 -4.648438 16.546875 -5.050781 C 16.796875 -5.648438 17 -6.25 17.046875 -7.050781 C 17.046875 -8.148438 17.25 -8.648438 17.398438 -8.949219 C 17.449219 -9.097656 17.5 -9.300781 17.5 -9.449219 C 17.5 -9.550781 17.648438 -10.050781 17.847656 -10.550781 C 18.097656 -11.199219 18.398438 -11.949219 18.347656 -12.097656 C 18.296875 -12.5 18.046875 -12.648438 17.796875 -12.847656 L 17.847656 -12.847656 L 17.75 -12.898438 L 17.75 -12.949219 C 17.75 -13 17.75 -13.046875 17.699219 -13.148438 C 16.949219 -13.847656 16.199219 -13.847656 15.25 -13.847656 C 14.699219 -13.847656 12.898438 -13.75 12.898438 -13.097656 C 12.75 -12.699219 12.597656 -12.398438 12.5 -12.296875 C 12.347656 -12.097656 12.148438 -11.847656 11.949219 -11.25 C 11.796875 -10.699219 11.648438 -10.148438 11.449219 -9.75 C 10.949219 -9 10.449219 -7.949219 9.898438 -6.800781 C 9.148438 -5.300781 8.300781 -3.550781 7.5 -2.449219 C 6.898438 -1.800781 6.347656 -1.199219 5.398438 -1.199219 L 5.25 -1.199219 C 4.949219 -1.199219 4.75 -1.449219 4.699219 -1.949219 C 4.699219 -2.101562 4.648438 -2.199219 4.597656 -2.300781 C 4.550781 -2.5 4.5 -2.75 4.5 -2.949219 Z M 4.398438 -3.449219 "/></g></g></g><g fill="#232b21" fill-opacity="1"><g transform="translate(189.323883, 276.448458)"><g/></g></g><g fill="#232b21" fill-opacity="1"><g transform="translate(207.171114, 276.448458)"><g><path d="M 33.097656 -18.648438 C 33.246094 -18.796875 33.347656 -18.949219 33.445312 -19.148438 C 33.546875 -19.449219 33.597656 -19.699219 33.546875 -19.949219 C 33.546875 -20.246094 33.046875 -20.699219 32.796875 -20.847656 C 32.597656 -20.949219 32.398438 -21.046875 32.148438 -21.046875 C 31.898438 -21.046875 31.546875 -21.097656 30.945312 -21.148438 C 30.597656 -21.148438 30.195312 -21.097656 29.597656 -21.097656 L 28.195312 -21.097656 C 29.195312 -23.546875 29.148438 -24.347656 29.296875 -25.246094 C 29.296875 -25.296875 29.347656 -25.347656 29.398438 -25.398438 C 29.597656 -26.097656 29.847656 -26.648438 29.847656 -27.148438 C 29.847656 -27.347656 29.796875 -27.496094 29.796875 -27.695312 L 29.796875 -29.496094 L 29.648438 -30.097656 L 29.648438 -32.945312 C 29.597656 -32.996094 29.496094 -33.046875 29.445312 -33.046875 C 28.996094 -35.097656 26.796875 -36.644531 24.699219 -36.644531 C 24.148438 -36.644531 24.246094 -35.847656 24.296875 -35.394531 C 24.246094 -35.148438 24.246094 -34.898438 24.246094 -34.648438 C 24.097656 -33.847656 24.046875 -32.898438 24.046875 -32.097656 C 23.898438 -31.496094 23.796875 -30.847656 23.699219 -30.246094 L 23.347656 -28.246094 C 23.148438 -27.648438 23.046875 -26.996094 22.949219 -26.296875 C 22.847656 -25.898438 22.746094 -25.398438 22.546875 -24.847656 L 22.097656 -23.246094 C 21.898438 -22.898438 21.648438 -21.546875 21.496094 -21.199219 L 21.296875 -21.199219 L 20.699219 -20.796875 L 20.597656 -20.796875 C 20.449219 -20.796875 20.296875 -20.898438 20.148438 -20.898438 C 20.148438 -20.898438 20.097656 -20.898438 20.046875 -20.847656 L 19.5 -20.898438 C 18.296875 -20.847656 17.097656 -20.699219 15.847656 -20.597656 L 13.949219 -20.449219 C 13.097656 -20.347656 12.296875 -20.296875 11.5 -20.296875 L 13.699219 -25.347656 C 14.449219 -27.246094 15.148438 -29.195312 15.796875 -30.945312 L 15.898438 -31.496094 C 16.5 -33.445312 17.046875 -35.296875 17.449219 -36.996094 C 17.75 -38.394531 17.898438 -39.546875 17.847656 -40.445312 C 17.75 -40.847656 17.699219 -41.144531 17.75 -41.445312 L 17.75 -41.597656 C 17.648438 -42.496094 17.398438 -43.296875 16.949219 -44.046875 C 16.5 -44.894531 15.796875 -45.644531 14.949219 -46.296875 L 13.25 -45.144531 C 12.949219 -44.996094 12.648438 -44.695312 12.347656 -44.296875 L 10.75 -41.597656 C 10.300781 -40.996094 10 -40.246094 9.800781 -39.496094 C 9.75 -38.945312 9.597656 -38.394531 9.449219 -37.796875 C 9.097656 -36.796875 8.699219 -35.644531 8.199219 -34.398438 C 7.699219 -33.195312 7.199219 -31.898438 6.75 -30.546875 L 6.300781 -29.496094 C 6.050781 -28.847656 5.847656 -28.148438 5.699219 -27.445312 C 5.398438 -26.296875 5.148438 -25.097656 4.800781 -23.898438 C 4.5 -22.597656 4.148438 -21.347656 3.699219 -20.148438 C 2.898438 -19.898438 2.101562 -19.796875 1.351562 -19.699219 L -0.5 -19.546875 L -1.898438 -19.5 C -2.550781 -19.449219 -3.101562 -19.296875 -3.550781 -19.097656 C -4.5 -18.796875 -5.148438 -18.5 -5.5 -18.046875 C -5.800781 -17.699219 -5.949219 -17.347656 -5.898438 -16.898438 C -5.800781 -16.046875 -4.847656 -15.347656 -4.097656 -15.148438 C -4.050781 -15.148438 -3.949219 -15.097656 -3.898438 -15.097656 C -3.550781 -15.097656 -3.25 -15.296875 -2.75 -15.5 C -2.300781 -15.597656 -1.800781 -15.847656 -1.300781 -16.097656 C -0.550781 -16 0.199219 -16 1 -16 C 1.5 -16 2.050781 -16 2.601562 -16.046875 L 2.25 -14 L 2.351562 -13.199219 C 2.25 -12.296875 2.199219 -11.398438 2.050781 -10.449219 C 1.949219 -9.25 1.75 -8.148438 1.550781 -7.097656 L 1.199219 -5 C 1.050781 -4.199219 0.851562 -3.5 0.75 -2.851562 C 0.699219 -2.398438 0.699219 -2.050781 0.75 -1.800781 C 0.898438 -0.449219 1.949219 1.800781 3.550781 1.800781 C 3.699219 1.800781 3.800781 1.800781 3.898438 1.75 C 3.949219 1.699219 4.050781 1.550781 4.148438 1.300781 C 4.347656 0.898438 4.550781 0.300781 4.898438 -0.449219 C 5.148438 -1.050781 5.347656 -1.75 5.648438 -2.550781 C 6.097656 -3.699219 6.550781 -4.898438 7.148438 -6.199219 C 7.398438 -6.699219 7.648438 -7.300781 7.898438 -7.898438 C 8.097656 -8.800781 8.300781 -9.597656 8.449219 -10.398438 C 8.550781 -10.949219 8.699219 -11.5 8.847656 -11.898438 C 9.050781 -12.546875 9.148438 -13.199219 9.347656 -13.898438 C 9.648438 -15.296875 10 -16.546875 10.847656 -17.046875 L 13.296875 -17.296875 C 15.5 -17.5 18 -17.796875 20.046875 -17.898438 L 19.898438 -16.75 C 19.949219 -16.25 19.449219 -15.597656 19.449219 -15 L 19.5 -14.148438 C 19.398438 -13.347656 19.25 -12.597656 19.097656 -11.898438 C 19 -11.25 18.847656 -10.699219 18.75 -10.199219 L 18.398438 -8.75 C 18.25 -8 18.097656 -7.199219 18.046875 -6.398438 C 17.949219 -5.550781 17.949219 -4.648438 18.097656 -3.800781 C 18.199219 -2.800781 18.5 -1.898438 19 -1.199219 C 19.648438 0.199219 20.546875 1.101562 20.996094 1.199219 C 21.046875 1.199219 21.097656 1.25 21.148438 1.25 C 21.347656 1.25 21.449219 1.101562 21.496094 0.898438 L 22.449219 -1.101562 L 24.046875 -5.5 C 24.199219 -5.898438 24.296875 -6.347656 24.398438 -6.75 L 24.546875 -8.050781 C 24.597656 -8.449219 24.648438 -8.898438 24.746094 -9.300781 C 24.796875 -9.75 24.949219 -10.148438 25.097656 -10.550781 C 25.246094 -10.800781 25.347656 -11.097656 25.398438 -11.449219 L 25.699219 -12.546875 C 25.796875 -13.097656 25.996094 -14.148438 26.347656 -14.546875 C 26.449219 -14.898438 26.546875 -15.199219 26.597656 -15.546875 L 27.046875 -17.699219 L 29.398438 -17.796875 C 30.398438 -17.847656 31.296875 -17.847656 32.648438 -18.199219 Z M 33.097656 -18.648438 "/></g></g></g><g fill="#232b21" fill-opacity="1"><g transform="translate(236.016644, 276.448458)"><g><path d="M 13.949219 -3 C 14.25 -2.851562 14.546875 -2.851562 14.898438 -2.851562 C 18.097656 -2.851562 22.246094 -8.847656 23.246094 -11.597656 C 23.699219 -12.398438 23.296875 -12.75 22.847656 -12.75 C 22.648438 -12.75 22.496094 -12.699219 22.347656 -12.597656 C 21.796875 -11.75 21.347656 -11 20.898438 -10.199219 C 20.597656 -9.75 20.347656 -9.25 20.046875 -8.847656 C 20.046875 -8.800781 19.996094 -8.800781 19.949219 -8.699219 C 19.046875 -7.5 16.796875 -4.449219 15.199219 -4.449219 C 15.097656 -4.449219 14.949219 -4.449219 14.75 -4.5 L 14.5 -4.5 C 14.796875 -5.148438 15.398438 -6.199219 15.398438 -6.398438 L 15.25 -7.5 L 15.347656 -7.898438 C 15.5 -8.300781 15.648438 -8.550781 15.296875 -8.949219 L 15.148438 -9.148438 C 15.097656 -9.199219 15.097656 -9.25 15.046875 -9.25 C 15.097656 -9.75 15.046875 -10 14.949219 -10.300781 C 14.949219 -10.550781 14.949219 -10.75 14.796875 -10.898438 L 14.597656 -10.898438 C 14.398438 -11.898438 13.25 -12.199219 12.5 -12.199219 C 11.550781 -12.148438 10.75 -12.25 10.300781 -8.699219 C 10.550781 -6.898438 11.597656 -4.949219 12.546875 -4.347656 C 12.398438 -3.75 11.75 -2.601562 10.847656 -1.898438 C 10.597656 -1.75 10.449219 -1.449219 10.25 -1.199219 C 9.550781 -0.398438 8.847656 -0.148438 7.75 -0.148438 C 7.25 -0.148438 6.800781 -0.25 6.398438 -0.449219 C 5.949219 -0.601562 5.449219 -1.75 5.449219 -2.398438 C 5.449219 -3 5.597656 -3.851562 5.800781 -4.699219 L 5.800781 -4.898438 L 5.949219 -5.800781 C 6.050781 -6.699219 6.199219 -7.898438 6.347656 -8.25 C 6.800781 -9.5 7.5 -10.699219 8.25 -11.699219 C 9.550781 -13.199219 12.648438 -14.847656 14.25 -14.949219 C 14.398438 -14.949219 14.546875 -14.898438 14.699219 -14.898438 C 15.546875 -14.898438 15.796875 -15.296875 15.699219 -15.546875 C 15.75 -17.597656 13.699219 -18.597656 11.75 -19.597656 L 11.597656 -19.699219 C 11.097656 -19.898438 10.648438 -19.996094 10.050781 -19.996094 C 8.949219 -19.996094 7.75 -19.546875 6.847656 -18.949219 L 6.550781 -18.796875 C 5.597656 -18.25 4.75 -17.597656 4 -16.75 L 4 -16.796875 C 2.199219 -15 0.398438 -12 0.25 -9.5 C 0.101562 -8.449219 -0.101562 -5.75 -0.0507812 -4.648438 C 0.148438 -2.050781 1.699219 -0.148438 4 0.949219 C 4.25 1 4.648438 1.101562 4.949219 1.101562 L 6.347656 1.75 L 6.898438 1.75 C 7.597656 1.75 8.199219 1.699219 8.847656 1.449219 C 9.5 1.351562 9.847656 1.101562 10.300781 0.75 C 10.449219 0.601562 10.648438 0.5 10.847656 0.351562 C 11.5 0 12.398438 -0.75 12.648438 -1.300781 C 12.648438 -1.300781 12.648438 -1.398438 12.699219 -1.449219 C 12.847656 -1.949219 13.347656 -2.101562 13.449219 -2.300781 Z M 12.648438 -10.050781 C 12.847656 -10.050781 13.046875 -9.898438 13.148438 -9.847656 C 13.449219 -9.550781 13.699219 -9.050781 13.75 -8.699219 L 14 -7.597656 C 14 -7.550781 13.949219 -7.5 13.949219 -7.449219 C 13.949219 -7.25 13.75 -7.097656 13.699219 -6.847656 L 13.25 -5.648438 L 12.597656 -6.347656 L 12.597656 -6.699219 C 12.097656 -8.148438 12.25 -8.648438 12.296875 -8.949219 C 12.347656 -9.148438 12.449219 -9.398438 12.398438 -9.550781 C 12.449219 -9.75 12.5 -9.898438 12.5 -9.949219 C 12.597656 -10.050781 12.648438 -10.097656 12.648438 -10.050781 Z M 12.648438 -10.050781 "/></g></g></g><g fill="#232b21" fill-opacity="1"><g transform="translate(255.763583, 276.448458)"><g><path d="M 15.699219 -13.597656 L 15.648438 -13.597656 C 16.75 -15.648438 16.847656 -16.25 16.847656 -16.546875 C 16.75 -16.796875 16.546875 -16.898438 16.347656 -16.898438 C 16.199219 -16.898438 15.949219 -16.796875 15.796875 -16.648438 L 15.699219 -16.648438 C 15.449219 -16.648438 15 -15.648438 14.546875 -14.75 C 14.296875 -14.148438 14 -13.597656 13.847656 -13.347656 L 13.847656 -13.398438 L 13.699219 -12.796875 C 13.648438 -12.648438 13.597656 -12.449219 13.5 -12.25 L 13.546875 -12.25 C 11.75 -8.699219 8.5 -4.347656 7.648438 -4.347656 C 7.5 -4.347656 7.347656 -4.550781 7.300781 -4.699219 C 7.25 -5.25 7.449219 -6.25 7.847656 -7.398438 L 7.597656 -9.050781 C 7.898438 -10.148438 8.300781 -11.347656 8.75 -12.648438 C 8.699219 -12.898438 8.648438 -13.199219 8.648438 -13.449219 C 8.648438 -13.699219 8.648438 -13.949219 8.597656 -14.097656 L 8.5 -14.648438 L 8.5 -14.75 C 8.449219 -14.898438 8.449219 -15 8.449219 -15.148438 L 9.898438 -19.546875 C 9.898438 -19.546875 9.898438 -19.847656 9.847656 -20.097656 C 9.800781 -20.746094 9.75 -22.046875 9.597656 -22.847656 L 10.949219 -27.445312 C 10.949219 -27.746094 10.898438 -28.046875 10.847656 -28.347656 L 10.847656 -28.496094 C 11.597656 -30.746094 12.25 -32.796875 12.046875 -33.898438 C 11.75 -35.546875 10.597656 -36.847656 9.699219 -37.347656 C 8.75 -39.046875 6.949219 -39.894531 6.199219 -39.894531 C 5 -39.894531 4.5 -35.394531 4.148438 -31.996094 C 4.097656 -31.945312 4.097656 -31.796875 4.097656 -31.695312 L 4.25 -31.347656 C 4.050781 -30.597656 3.949219 -29.945312 3.949219 -29.898438 C 3.898438 -28.746094 3.601562 -27.746094 3.351562 -26.746094 C 3.050781 -25.699219 2.75 -24.199219 2.75 -22.949219 C 2.300781 -20.796875 1.851562 -16.449219 1.898438 -15.699219 C 1.398438 -13.5 1.148438 -11.398438 1.148438 -9.597656 C 1.148438 -6.699219 2.300781 -2.199219 5.75 -1.898438 C 6.550781 -1.898438 7.300781 -2.300781 8.347656 -2.949219 C 8.398438 -2.949219 8.5 -2.898438 8.550781 -2.898438 C 9.5 -2.898438 10.949219 -5.097656 11.949219 -6.648438 C 12.097656 -6.800781 12.296875 -7.097656 12.25 -7.050781 C 13.648438 -9.148438 14.898438 -11.5 15.5 -13.097656 Z M 15.699219 -13.597656 "/></g></g></g><g fill="#232b21" fill-opacity="1"><g transform="translate(267.011843, 276.448458)"><g><path d="M 9.347656 -4.847656 C 8.847656 -4.300781 8.300781 -3.699219 7.699219 -3.351562 C 6.898438 -2.648438 6.25 -2.148438 5.898438 -2 C 5.5 -2.101562 5.25 -2.398438 5.25 -2.75 C 5.25 -3.199219 5.5 -3.75 5.847656 -4.398438 L 6.050781 -4.597656 C 6.25 -4.800781 6.25 -4.847656 6.199219 -5 L 6.148438 -5.050781 C 6.398438 -6.300781 6.800781 -7.699219 7.300781 -9.050781 L 7.300781 -9.347656 C 7.398438 -9.550781 7.550781 -9.898438 7.597656 -10.097656 C 7.847656 -10.699219 8.148438 -11.449219 8.398438 -12.25 C 8.347656 -12.449219 8.347656 -12.648438 8.347656 -12.847656 C 8.347656 -13 8.347656 -13.296875 8.300781 -13.449219 C 8.300781 -13.597656 8.300781 -13.847656 8.25 -14 L 8.199219 -14.148438 C 8.148438 -14.148438 8.148438 -14.199219 8.148438 -14.25 L 8.25 -14.648438 C 8.449219 -15.296875 8.550781 -16 8.5 -16.5 C 8.25 -18.25 7.097656 -20.398438 5.097656 -20.398438 C 4.800781 -20.398438 4.550781 -20.347656 4.347656 -20.199219 C 3.851562 -19.996094 3.550781 -19.449219 3.398438 -18.699219 L 3.398438 -18.398438 C 3 -17.046875 2.398438 -15.597656 1.800781 -14.148438 L 1 -11.597656 C 0.75 -10.398438 0.550781 -9.347656 0.398438 -8.347656 L 0.398438 -7.449219 C 0.398438 -7.148438 0.351562 -6.847656 0.351562 -6.550781 C 0.351562 -3.800781 1.351562 -0.648438 4.398438 -0.0507812 C 5.148438 -0.0507812 5.800781 -0.101562 6.5 -0.449219 L 6.5 -0.398438 C 7.097656 -0.648438 7.699219 -1.101562 8.398438 -1.550781 L 8.347656 -1.550781 L 8.597656 -1.699219 C 9.050781 -2.101562 9.5 -2.648438 9.949219 -3.148438 L 10.398438 -3.648438 C 11.199219 -4.5 11.847656 -5.449219 12.449219 -6.347656 L 12.75 -6.898438 L 12.75 -6.949219 L 12.898438 -7.347656 L 12.898438 -7.300781 C 13.796875 -8.699219 14.546875 -10.050781 15.199219 -11.148438 L 15.597656 -11.847656 C 15.75 -12.148438 15.949219 -12.449219 16.097656 -12.648438 L 16.097656 -12.699219 C 16.199219 -12.796875 16.199219 -12.898438 16.148438 -13 C 16.398438 -13.648438 16.148438 -13.949219 15.796875 -13.949219 C 15.546875 -13.949219 15.296875 -13.847656 15.046875 -13.597656 C 13.75 -11 11.5 -7.398438 9.699219 -5.25 Z M 11.847656 -31.445312 C 11.699219 -31.445312 11.597656 -31.398438 11.5 -31.296875 C 11.148438 -29.898438 7.648438 -25.449219 7.597656 -24.148438 C 7.648438 -23.898438 7.699219 -23.699219 8 -23.699219 L 8.097656 -23.699219 C 8.300781 -23.699219 10.25 -23.949219 11.347656 -24.746094 C 12.847656 -25.796875 14.75 -28.097656 14.699219 -28.945312 C 14.648438 -29.445312 12.898438 -31.445312 11.847656 -31.445312 Z M 11.847656 -31.445312 "/></g></g></g><g fill="#232b21" fill-opacity="1"><g transform="translate(279.059976, 276.448458)"><g><path d="M 6.148438 -16.449219 C 6.25 -16.148438 6.347656 -15.949219 6.398438 -15.898438 C 6.699219 -15.296875 6.800781 -14.75 6.898438 -14.25 C 7.097656 -13.796875 7.148438 -13.449219 7.148438 -13.097656 C 7.199219 -12.699219 7.199219 -12.296875 7.398438 -11.898438 L 7.097656 -9.648438 C 7.300781 -9.097656 7.148438 -8.597656 7.050781 -8.148438 C 6.949219 -7.847656 6.898438 -7.550781 6.898438 -7.300781 C 6.949219 -7.097656 6.847656 -6.847656 6.75 -6.648438 C 6.75 -6.597656 6.699219 -6.5 6.699219 -6.449219 C 6.648438 -6.097656 6.5 -5.847656 6.25 -5.699219 C 6.097656 -5.800781 5.898438 -5.800781 5.597656 -5.800781 C 4.449219 -5.800781 2.300781 -5.199219 1.5 -4.5 C 0.648438 -4 -0.0507812 -3.101562 0.101562 -2.199219 C 0.25 -1.25 0.851562 -0.550781 1.648438 -0.148438 L 1.699219 -0.101562 C 2.648438 0.300781 3.5 0.648438 4.097656 0.648438 L 4.25 0.648438 C 4.347656 0.699219 4.398438 0.75 4.5 0.75 C 4.949219 1 5.5 1.101562 6 1.101562 C 6.847656 1.050781 8.648438 0.550781 9.199219 0.101562 L 9.648438 -0.199219 C 10.050781 -0.398438 10.5 -0.648438 10.699219 -0.898438 C 11.097656 -1.648438 11.898438 -3.050781 11.949219 -4.347656 L 12.5 -4.347656 C 12.699219 -4.398438 13.046875 -4.597656 13.25 -4.699219 C 13.75 -4.800781 14.296875 -5.050781 14.699219 -5.25 L 15.046875 -5.398438 C 16.449219 -6.097656 17.449219 -6.949219 18.199219 -7.699219 L 18.5 -8.25 C 19.296875 -9.097656 19.796875 -10.050781 20.296875 -10.898438 C 20.699219 -11.398438 20.996094 -11.796875 20.996094 -12.046875 C 21.148438 -12.699219 20.898438 -13.046875 20.496094 -13.046875 C 20.296875 -13.046875 20.097656 -12.949219 19.898438 -12.75 C 18.847656 -10.648438 17.25 -8.597656 15.296875 -7.25 L 15.148438 -7.148438 L 15.199219 -7.148438 C 14.796875 -6.847656 14.25 -6.550781 13.648438 -6.398438 L 12.597656 -6.050781 C 12.648438 -6.449219 12.898438 -6.898438 13.148438 -7.25 C 13.398438 -7.597656 13.597656 -7.898438 13.648438 -8.199219 C 13.796875 -8.449219 13.75 -8.800781 13.648438 -9.300781 C 13.597656 -9.5 13.546875 -9.75 13.546875 -9.949219 L 13.398438 -10.449219 C 13.347656 -10.5 13.398438 -10.699219 13.449219 -10.75 C 13.546875 -11 13.699219 -11.097656 13.398438 -11.347656 L 12.847656 -12.847656 L 12.199219 -13.449219 C 11.847656 -14.398438 10.449219 -17.699219 9.847656 -18.546875 C 10.050781 -19 10.449219 -19.597656 10.847656 -20.148438 C 11.550781 -21.097656 12.25 -22.097656 12.148438 -22.796875 C 12.097656 -23.097656 12 -23.347656 11.949219 -23.546875 L 11.796875 -24.148438 C 11.597656 -25.046875 10.949219 -25.847656 10.347656 -26.546875 C 9.898438 -26.949219 9.5 -27.148438 9.148438 -27.347656 L 8.949219 -27.496094 C 8.699219 -27.695312 8.5 -27.796875 8.300781 -27.796875 C 8 -27.796875 7.648438 -27.496094 7 -26.847656 L 6.800781 -26.648438 C 6.648438 -26.296875 6.300781 -25.847656 6 -25.449219 C 5.5 -24.898438 5 -24.246094 4.847656 -23.699219 L 5.148438 -18.097656 C 4.75 -17 2.050781 -11.898438 1.648438 -11.199219 C 1.199219 -10.300781 1.199219 -9.097656 1.5 -9.097656 C 1.550781 -9.097656 1.601562 -9.148438 1.648438 -9.199219 C 2.75 -10.5 3.851562 -12.597656 4.699219 -14.097656 C 5.449219 -15.398438 5.949219 -16.398438 6.148438 -16.449219 Z M 1.75 -2.25 C 2.601562 -3.601562 5.847656 -4.300781 5.949219 -4.148438 C 5.699219 -2.75 4.5 -1.398438 3 -1.398438 C 2.300781 -1.398438 1.648438 -1.851562 1.75 -2.25 Z M 1.75 -2.25 "/></g></g></g><g fill="#232b21" fill-opacity="1"><g transform="translate(296.607269, 276.448458)"><g><path d="M 13.699219 -31.945312 C 13.449219 -32.148438 13.296875 -32.796875 13.148438 -33.347656 L 12.847656 -34.296875 L 12.847656 -35.148438 C 12.546875 -37.695312 10.050781 -39.144531 9.148438 -39.144531 C 8.347656 -39.144531 8.148438 -37.394531 7.949219 -35.347656 C 7.847656 -34.296875 7.75 -33.046875 7.550781 -31.898438 C 7.5 -31.597656 7.347656 -31.195312 7.199219 -30.847656 C 7.050781 -30.546875 6.949219 -30.246094 6.847656 -29.796875 L 6.847656 -29.847656 L 5.648438 -26.597656 C 5.097656 -26.648438 4.449219 -26.699219 3.898438 -26.699219 L 2.148438 -26.796875 C -0.75 -27.046875 -2.949219 -27.648438 -4.449219 -28.246094 L -5.148438 -28.148438 C -5.300781 -28.296875 -5.398438 -28.347656 -5.5 -28.347656 C -5.550781 -28.347656 -5.648438 -28.296875 -5.699219 -28.246094 C -5.949219 -28.246094 -6.050781 -28.046875 -6.050781 -27.847656 C -5.699219 -26.246094 -2.101562 -24.949219 2.199219 -24.496094 L 4.949219 -24.199219 C 4.800781 -23.449219 4.699219 -22.746094 4.597656 -22.046875 C 4.347656 -20.699219 4.148438 -19.25 3.75 -17.949219 L 3.75 -18 C 3.550781 -17.5 3.398438 -16.796875 3.25 -16.148438 L 3.050781 -15.296875 C 3.050781 -15.148438 3.101562 -15 3.101562 -14.847656 C 1.851562 -11.449219 1.101562 -8 1.199219 -6.199219 C 1.351562 -5.097656 2.898438 -3.648438 3.898438 -2.75 C 4.347656 -1.75 5.097656 -1 6.550781 -1 C 7.847656 -1 9.800781 -2.800781 11.5 -4.699219 L 13.296875 -6.949219 C 16.296875 -10.699219 18.148438 -14.097656 18.347656 -15.449219 C 18.347656 -15.546875 18.347656 -15.699219 18.25 -15.847656 L 18.296875 -15.898438 L 18.296875 -15.847656 C 18.347656 -16 18.398438 -16.148438 18.347656 -16.296875 C 18.347656 -16.546875 18.097656 -16.75 17.898438 -16.75 C 17.398438 -16.75 15.699219 -13.5 15.097656 -12.296875 L 15.097656 -12.347656 L 14.847656 -11.847656 C 14.398438 -10.847656 13.5 -9.75 12.699219 -8.75 C 12.398438 -8.398438 12.046875 -8.050781 11.796875 -7.699219 C 10.347656 -5.949219 8.25 -3.800781 7.347656 -3.398438 C 7.148438 -3.601562 7.097656 -3.851562 7.097656 -4.199219 C 6.898438 -5.949219 7.898438 -8.898438 9.050781 -12.199219 L 10.398438 -16.25 L 10.300781 -17.398438 C 10.699219 -18.597656 11 -20.148438 11.199219 -21.449219 C 11.300781 -22.296875 11.449219 -23.148438 11.597656 -23.996094 L 15.898438 -23.796875 L 16.148438 -23.796875 C 16.296875 -23.746094 16.398438 -23.746094 16.597656 -23.746094 C 20.296875 -23.347656 23.699219 -22.148438 23.949219 -20.996094 L 24.648438 -20.996094 C 24.949219 -20.996094 25.296875 -21.097656 25.199219 -21.597656 C 24.996094 -23.046875 22.597656 -25.296875 17.097656 -25.847656 L 16.546875 -25.847656 C 16.398438 -25.796875 16.25 -25.796875 16.148438 -25.796875 L 12.148438 -25.996094 C 12.796875 -28.195312 13.296875 -30.046875 13.699219 -31.796875 Z M 13.699219 -31.945312 "/></g></g></g><g fill="#232b21" fill-opacity="1"><g transform="translate(309.3553, 276.448458)"><g><path d="M 12.75 -6.898438 L 12.75 -6.949219 L 12.898438 -7.347656 L 12.898438 -7.300781 C 13.796875 -8.699219 14.546875 -10.050781 15.199219 -11.148438 L 15.597656 -11.847656 C 15.75 -12.148438 15.949219 -12.449219 16.097656 -12.648438 L 16.097656 -12.699219 C 16.199219 -12.796875 16.199219 -12.898438 16.148438 -13 C 16.398438 -13.648438 16.148438 -13.949219 15.796875 -13.949219 C 15.546875 -13.949219 15.296875 -13.847656 15.046875 -13.597656 C 13.75 -11 11.5 -7.398438 9.699219 -5.25 L 9.347656 -4.847656 C 8.847656 -4.300781 8.300781 -3.699219 7.699219 -3.351562 C 6.898438 -2.648438 6.25 -2.148438 5.898438 -2 C 5.5 -2.101562 5.25 -2.398438 5.25 -2.75 C 5.25 -3.199219 5.5 -3.75 5.847656 -4.398438 L 6.050781 -4.597656 C 6.25 -4.800781 6.25 -4.847656 6.199219 -5 L 6.148438 -5.050781 C 6.398438 -6.300781 6.800781 -7.699219 7.300781 -9.050781 L 7.300781 -9.347656 C 7.398438 -9.550781 7.550781 -9.898438 7.597656 -10.097656 C 7.847656 -10.699219 8.148438 -11.449219 8.398438 -12.25 C 8.347656 -12.449219 8.347656 -12.648438 8.347656 -12.847656 C 8.347656 -13 8.347656 -13.296875 8.300781 -13.449219 C 8.300781 -13.597656 8.300781 -13.847656 8.25 -14 L 8.199219 -14.148438 C 8.148438 -14.148438 8.148438 -14.199219 8.148438 -14.25 L 8.25 -14.648438 C 8.449219 -15.296875 8.550781 -16 8.5 -16.5 C 8.25 -18.25 7.097656 -20.398438 5.097656 -20.398438 C 4.800781 -20.398438 4.550781 -20.347656 4.347656 -20.199219 C 3.851562 -19.996094 3.550781 -19.449219 3.398438 -18.699219 L 3.398438 -18.398438 C 3 -17.046875 2.398438 -15.597656 1.800781 -14.148438 L 1 -11.597656 C 0.75 -10.398438 0.550781 -9.347656 0.398438 -8.347656 L 0.398438 -7.449219 C 0.398438 -7.148438 0.351562 -6.847656 0.351562 -6.550781 C 0.351562 -3.800781 1.351562 -0.648438 4.398438 -0.0507812 C 5.148438 -0.0507812 5.800781 -0.101562 6.5 -0.449219 L 6.5 -0.398438 C 7.097656 -0.648438 7.699219 -1.101562 8.398438 -1.550781 L 8.347656 -1.550781 L 8.597656 -1.699219 C 9.050781 -2.101562 9.5 -2.648438 9.949219 -3.148438 L 10.398438 -3.648438 C 11.199219 -4.5 11.847656 -5.449219 12.449219 -6.347656 Z M 12.296875 -28.847656 C 12.546875 -29.195312 12.699219 -29.546875 12.847656 -29.796875 L 12.796875 -29.796875 C 13.097656 -30.195312 13.296875 -30.597656 13.25 -31.148438 C 13.148438 -31.445312 12.898438 -31.796875 12.597656 -32.046875 C 11.75 -32.746094 10.25 -33.296875 9.550781 -33.246094 C 8.800781 -33.246094 7.949219 -32.847656 7.25 -32.195312 C 6.75 -31.746094 6.398438 -31.046875 6.449219 -29.996094 C 6.449219 -28.648438 7.097656 -27.445312 7.800781 -26.847656 C 8.449219 -26.449219 9.148438 -26.199219 9.800781 -26.148438 C 10.597656 -26.148438 10.800781 -26.398438 11.699219 -27.847656 Z M 12.296875 -28.847656 "/></g></g></g><g fill="#232b21" fill-opacity="1"><g transform="translate(321.403433, 276.448458)"><g><path d="M 12.597656 -22.347656 C 12 -22.046875 12.046875 -22.046875 11.796875 -21.847656 L 11.25 -21.496094 C 11.097656 -21.847656 10.597656 -22.398438 9.449219 -22.398438 C 6.648438 -22.398438 2.449219 -17.5 0.601562 -12.546875 C 0.0507812 -11 -0.199219 -8.898438 -0.101562 -7.699219 C 0.25 -3.300781 3.601562 0.0507812 7.75 0.398438 C 9.550781 0.398438 11.5 -0.398438 13.699219 -2.851562 C 14.25 -3.75 14.648438 -4.5 15.398438 -5.347656 L 15.898438 -5.949219 L 16.5 -6.800781 C 16.699219 -7.097656 16.949219 -7.398438 17.25 -7.75 L 17.699219 -8.550781 L 17.699219 -8.5 C 20.046875 -11.5 20.796875 -13.597656 20.796875 -13.949219 C 20.746094 -14.296875 20.496094 -14.5 20.148438 -14.5 C 19.449219 -14.5 18.449219 -12.847656 17.648438 -11.347656 C 17.25 -10.597656 16.847656 -9.847656 16.347656 -9.199219 L 15.796875 -8.449219 C 13.75 -5.550781 10.949219 -1.800781 9.398438 -1.800781 C 9.300781 -1.800781 9.199219 -1.800781 9 -1.898438 C 8.75 -1.699219 8.550781 -1.648438 8.398438 -1.648438 C 6.800781 -1.648438 6.050781 -3.601562 5.847656 -5.5 C 5.75 -7.347656 6.199219 -9.097656 6.847656 -10.597656 L 8.25 -13.648438 C 8.597656 -14.398438 8.847656 -14.949219 9.148438 -15.398438 L 9.347656 -16.097656 L 9.699219 -16.796875 C 9.949219 -15.949219 10.597656 -14.148438 12.148438 -14.148438 C 12.597656 -14.148438 13.097656 -14.148438 13.046875 -14.699219 C 12.949219 -15.796875 13.25 -16.25 13.546875 -16.75 C 13.847656 -17.347656 14.199219 -17.949219 14.097656 -19.449219 C 13.847656 -21.296875 12.796875 -22.347656 12.597656 -22.347656 Z M 12.597656 -22.347656 "/></g></g></g><g fill="#232b21" fill-opacity="1"><g transform="translate(337.300969, 276.448458)"><g><path d="M 4.398438 -3.449219 L 4.347656 -3.5 C 4.347656 -3.648438 4.5 -4.148438 4.597656 -4.5 L 4.597656 -4.449219 L 4.648438 -4.75 C 5 -5.648438 5.25 -6.199219 5.597656 -6.949219 L 6.050781 -7.898438 C 6.347656 -8.699219 6.648438 -9.398438 7.148438 -10.199219 C 7.398438 -11.300781 8.5 -12.25 9.398438 -13.046875 L 10.300781 -13.898438 C 11.398438 -15.097656 13.75 -15.5 14.847656 -15.5 C 14.949219 -15.5 15.097656 -15.5 15.199219 -15.449219 C 15.648438 -15.546875 15.847656 -15.898438 15.796875 -16.398438 C 15.699219 -17.347656 13.148438 -19.148438 11.796875 -19.5 L 11.550781 -19.5 C 10.449219 -19.5 8.148438 -18.796875 6.847656 -17.898438 L 6.898438 -17.898438 L 6.148438 -17.546875 C 4.398438 -16.347656 3 -14.597656 1.75 -12.949219 L 1.300781 -11.949219 C -0.25 -9.398438 -1.449219 -6.25 -1.300781 -4 C -0.949219 -0.351562 2.300781 1 4.75 1 C 5.199219 1 5.800781 0.550781 6.449219 0.0507812 L 6.648438 -0.101562 C 7.25 -0.148438 7.898438 -1.050781 8.449219 -1.898438 C 8.597656 -2.148438 8.699219 -2.398438 8.949219 -2.648438 L 9.898438 -4.550781 L 9.898438 -4.5 L 10.597656 -5.550781 C 10.597656 -5.449219 10.597656 -5.597656 10.550781 -5.300781 C 10.550781 -5.25 10.5 -5.199219 10.5 -5.148438 L 10.550781 -4.75 C 10.597656 -4.398438 10.597656 -4.148438 10.597656 -3.898438 C 10.597656 -3.648438 10.597656 -3.300781 10.648438 -3.050781 C 10.648438 -2.601562 10.75 -2.050781 10.898438 -1.648438 C 11.25 -0.398438 12.898438 1.601562 14.449219 1.601562 C 14.847656 1.601562 15.199219 1.449219 15.597656 1.300781 L 16 1.148438 C 16.949219 1.101562 19.046875 -0.898438 19.449219 -1.800781 C 19.847656 -2.300781 20.648438 -3.648438 21.449219 -4.949219 C 22.199219 -6.148438 22.898438 -7.300781 23.246094 -7.75 C 24.097656 -9.25 24.746094 -10.148438 25.148438 -10.699219 C 25.449219 -11.148438 25.597656 -11.398438 25.597656 -11.550781 C 25.648438 -11.796875 25.648438 -11.949219 25.648438 -12.097656 C 25.597656 -12.449219 25.398438 -12.597656 25.148438 -12.597656 C 24.949219 -12.597656 24.699219 -12.5 24.546875 -12.347656 L 23.347656 -10.449219 C 23.097656 -9.949219 22.597656 -9.300781 22.398438 -8.847656 C 22.046875 -8.050781 21.597656 -7.5 21.347656 -7.097656 L 19.847656 -4.449219 C 18.898438 -2.898438 17.046875 -0.550781 15.847656 -0.550781 C 15.597656 -0.550781 15.097656 -0.601562 15.097656 -0.75 C 15.046875 -0.949219 15.25 -1.398438 15.546875 -2 L 16.148438 -3.800781 C 16.25 -4.25 16.398438 -4.648438 16.546875 -5.050781 C 16.796875 -5.648438 17 -6.25 17.046875 -7.050781 C 17.046875 -8.148438 17.25 -8.648438 17.398438 -8.949219 C 17.449219 -9.097656 17.5 -9.300781 17.5 -9.449219 C 17.5 -9.550781 17.648438 -10.050781 17.847656 -10.550781 C 18.097656 -11.199219 18.398438 -11.949219 18.347656 -12.097656 C 18.296875 -12.5 18.046875 -12.648438 17.796875 -12.847656 L 17.847656 -12.847656 L 17.75 -12.898438 L 17.75 -12.949219 C 17.75 -13 17.75 -13.046875 17.699219 -13.148438 C 16.949219 -13.847656 16.199219 -13.847656 15.25 -13.847656 C 14.699219 -13.847656 12.898438 -13.75 12.898438 -13.097656 C 12.75 -12.699219 12.597656 -12.398438 12.5 -12.296875 C 12.347656 -12.097656 12.148438 -11.847656 11.949219 -11.25 C 11.796875 -10.699219 11.648438 -10.148438 11.449219 -9.75 C 10.949219 -9 10.449219 -7.949219 9.898438 -6.800781 C 9.148438 -5.300781 8.300781 -3.550781 7.5 -2.449219 C 6.898438 -1.800781 6.347656 -1.199219 5.398438 -1.199219 L 5.25 -1.199219 C 4.949219 -1.199219 4.75 -1.449219 4.699219 -1.949219 C 4.699219 -2.101562 4.648438 -2.199219 4.597656 -2.300781 C 4.550781 -2.5 4.5 -2.75 4.5 -2.949219 Z M 4.398438 -3.449219 "/></g></g></g></svg>